# Blender v2.91.0 OBJ File: 'Bullet.Display.blend'
# www.blender.org
mtllib Bullet.Display.mtl
o Bullet.Display
v 0.000000 0.056251 -0.056251
v 0.000000 0.030443 -0.073495
v 0.000000 -0.030443 -0.073495
v 0.000000 -0.073495 -0.030443
v 0.011650 0.073495 -0.028125
v 0.021526 0.056251 -0.051969
v 0.028125 0.030443 -0.067901
v 0.030443 -0.000000 -0.073495
v 0.028125 -0.030443 -0.067901
v 0.021526 -0.056251 -0.051969
v 0.011650 -0.073495 -0.028125
v 0.021526 0.073495 -0.021526
v 0.039775 0.056251 -0.039775
v 0.051969 0.030443 -0.051969
v 0.056251 -0.000000 -0.056251
v 0.051969 -0.030443 -0.051969
v 0.039775 -0.056251 -0.039775
v 0.021526 -0.073495 -0.021526
v 0.028125 0.073495 -0.011650
v 0.051969 0.056251 -0.021526
v 0.067901 0.030443 -0.028125
v 0.073495 -0.000000 -0.030443
v 0.067901 -0.030443 -0.028125
v 0.051969 -0.056251 -0.021526
v 0.028125 -0.073495 -0.011650
v 0.030443 0.073495 -0.000000
v 0.056251 0.056251 -0.000000
v 0.073495 0.030443 -0.000000
v 0.079551 -0.000000 -0.000000
v 0.073495 -0.030443 -0.000000
v 0.056251 -0.056251 -0.000000
v 0.030443 -0.073495 -0.000000
v 0.028125 0.073495 0.011650
v 0.051969 0.056251 0.021526
v 0.067901 0.030443 0.028125
v 0.073495 -0.000000 0.030443
v 0.067901 -0.030443 0.028125
v 0.051969 -0.056251 0.021526
v 0.028125 -0.073495 0.011650
v 0.021526 0.073495 0.021526
v 0.039775 0.056251 0.039775
v 0.051969 0.030443 0.051969
v 0.056251 -0.000000 0.056251
v 0.051969 -0.030443 0.051969
v 0.039775 -0.056251 0.039775
v 0.021526 -0.073495 0.021526
v 0.011650 0.073495 0.028125
v 0.021526 0.056251 0.051969
v 0.028125 0.030443 0.067901
v 0.030443 -0.000000 0.073495
v 0.028125 -0.030443 0.067901
v 0.021526 -0.056251 0.051969
v 0.011650 -0.073495 0.028125
v -0.000000 0.073495 0.030443
v -0.000000 0.056251 0.056251
v -0.000000 0.030443 0.073495
v -0.000000 -0.000000 0.079551
v -0.000000 -0.030443 0.073495
v -0.000000 -0.056251 0.056251
v -0.000000 -0.073495 0.030443
v -0.011650 0.073495 0.028125
v -0.021526 0.056251 0.051969
v -0.028125 0.030443 0.067901
v -0.030443 -0.000000 0.073495
v -0.028125 -0.030443 0.067901
v -0.021526 -0.056251 0.051969
v -0.011650 -0.073495 0.028125
v -0.021526 0.073495 0.021526
v -0.039775 0.056251 0.039775
v -0.051969 0.030443 0.051969
v -0.056251 -0.000000 0.056251
v -0.051969 -0.030443 0.051969
v -0.039775 -0.056251 0.039775
v -0.021526 -0.073495 0.021526
v -0.028125 0.073495 0.011650
v -0.051969 0.056251 0.021526
v -0.067901 0.030443 0.028125
v -0.073495 -0.000000 0.030443
v -0.067901 -0.030443 0.028125
v -0.051969 -0.056251 0.021526
v -0.028125 -0.073495 0.011650
v -0.030443 0.073495 -0.000000
v -0.056251 0.056251 -0.000000
v -0.073495 0.030443 -0.000000
v -0.079551 -0.000000 -0.000000
v -0.073495 -0.030443 -0.000000
v -0.056251 -0.056251 -0.000000
v -0.030443 -0.073495 -0.000000
v -0.028125 0.073495 -0.011650
v -0.051969 0.056251 -0.021526
v -0.067901 0.030443 -0.028125
v -0.073495 -0.000000 -0.030443
v -0.067901 -0.030443 -0.028125
v -0.051969 -0.056251 -0.021526
v -0.028125 -0.073495 -0.011650
v -0.021526 0.073495 -0.021526
v -0.039775 0.056251 -0.039775
v -0.051969 0.030443 -0.051969
v -0.056251 -0.000000 -0.056251
v -0.051969 -0.030443 -0.051969
v -0.039775 -0.056251 -0.039775
v -0.021526 -0.073495 -0.021526
v -0.011650 0.073495 -0.028125
v -0.021526 0.056251 -0.051969
v -0.028125 0.030443 -0.067901
v -0.030443 -0.000000 -0.073495
v -0.028125 -0.030443 -0.067901
v -0.021526 -0.056251 -0.051969
v -0.011650 -0.073495 -0.028125
v -0.000000 0.079551 -0.000000
v 0.000000 0.073495 -0.030443
v 0.000000 -0.000000 -0.079551
v 0.000000 -0.056251 -0.056251
v 0.000000 -0.079551 -0.000000
vt 0.718750 0.000000
vt 0.750000 0.125000
vt 0.687500 0.125000
vt 0.750000 0.250000
vt 0.687500 0.375000
vt 0.687500 0.250000
vt 0.750000 0.500000
vt 0.687500 0.625000
vt 0.687500 0.500000
vt 0.750000 0.875000
vt 0.687500 0.750000
vt 0.750000 0.750000
vt 0.750000 0.375000
vt 0.750000 0.625000
vt 0.718750 1.000000
vt 0.687500 0.875000
vt 0.625000 0.750000
vt 0.625000 0.125000
vt 0.625000 0.375000
vt 0.625000 0.625000
vt 0.656250 1.000000
vt 0.625000 0.875000
vt 0.656250 0.000000
vt 0.625000 0.250000
vt 0.625000 0.500000
vt 0.562500 0.250000
vt 0.562500 0.125000
vt 0.562500 0.375000
vt 0.562500 0.625000
vt 0.593750 1.000000
vt 0.562500 0.875000
vt 0.593750 0.000000
vt 0.562500 0.500000
vt 0.562500 0.750000
vt 0.531250 1.000000
vt 0.500000 0.875000
vt 0.531250 0.000000
vt 0.500000 0.125000
vt 0.500000 0.250000
vt 0.500000 0.500000
vt 0.500000 0.750000
vt 0.500000 0.375000
vt 0.500000 0.625000
vt 0.437500 0.250000
vt 0.437500 0.500000
vt 0.437500 0.875000
vt 0.437500 0.750000
vt 0.437500 0.125000
vt 0.437500 0.375000
vt 0.437500 0.625000
vt 0.468750 1.000000
vt 0.468750 0.000000
vt 0.375000 0.125000
vt 0.375000 0.375000
vt 0.375000 0.625000
vt 0.406250 1.000000
vt 0.375000 0.875000
vt 0.406250 0.000000
vt 0.375000 0.250000
vt 0.375000 0.500000
vt 0.375000 0.750000
vt 0.312500 0.375000
vt 0.312500 0.625000
vt 0.343750 1.000000
vt 0.312500 0.875000
vt 0.343750 0.000000
vt 0.312500 0.125000
vt 0.312500 0.250000
vt 0.312500 0.500000
vt 0.312500 0.750000
vt 0.281250 0.000000
vt 0.250000 0.125000
vt 0.250000 0.250000
vt 0.250000 0.500000
vt 0.250000 0.875000
vt 0.250000 0.750000
vt 0.250000 0.375000
vt 0.250000 0.625000
vt 0.281250 1.000000
vt 0.187500 0.500000
vt 0.187500 0.875000
vt 0.187500 0.750000
vt 0.187500 0.250000
vt 0.187500 0.125000
vt 0.187500 0.375000
vt 0.187500 0.625000
vt 0.218750 1.000000
vt 0.218750 0.000000
vt 0.125000 0.125000
vt 0.125000 0.375000
vt 0.125000 0.625000
vt 0.156250 1.000000
vt 0.125000 0.875000
vt 0.156250 0.000000
vt 0.125000 0.250000
vt 0.125000 0.500000
vt 0.125000 0.750000
vt 0.062500 0.750000
vt 0.062500 0.625000
vt 0.093750 1.000000
vt 0.062500 0.875000
vt 0.093750 0.000000
vt 0.062500 0.125000
vt 0.062500 0.250000
vt 0.062500 0.500000
vt 0.062500 0.375000
vt 0.031250 0.000000
vt 0.000000 0.125000
vt 0.000000 0.375000
vt 0.000000 0.250000
vt 0.000000 0.500000
vt 0.000000 0.875000
vt 0.000000 0.750000
vt 0.000000 0.625000
vt 0.031250 1.000000
vt 1.000000 0.750000
vt 0.937500 0.875000
vt 0.937500 0.750000
vt 1.000000 0.250000
vt 0.937500 0.125000
vt 1.000000 0.125000
vt 1.000000 0.500000
vt 0.937500 0.375000
vt 1.000000 0.375000
vt 0.937500 0.625000
vt 1.000000 0.625000
vt 1.000000 0.875000
vt 0.968750 1.000000
vt 0.968750 0.000000
vt 0.937500 0.250000
vt 0.937500 0.500000
vt 0.875000 0.125000
vt 0.875000 0.375000
vt 0.875000 0.625000
vt 0.906250 1.000000
vt 0.875000 0.875000
vt 0.906250 0.000000
vt 0.875000 0.250000
vt 0.875000 0.500000
vt 0.875000 0.750000
vt 0.843750 1.000000
vt 0.812500 0.875000
vt 0.843750 0.000000
vt 0.812500 0.125000
vt 0.812500 0.250000
vt 0.812500 0.500000
vt 0.812500 0.750000
vt 0.812500 0.375000
vt 0.812500 0.625000
vt 0.781250 1.000000
vt 0.781250 0.000000
vn 0.0000 -1.0000 0.0000
vn 0.0000 -0.9152 -0.4031
vn 0.1542 -0.9152 -0.3724
vn 0.0000 -0.6952 -0.7188
vn 0.3548 -0.3743 -0.8567
vn 0.2751 -0.6952 -0.6641
vn 0.0000 0.0000 -1.0000
vn 0.3548 0.3743 -0.8567
vn 0.3827 0.0000 -0.9239
vn 0.0000 0.9152 -0.4031
vn 0.2751 0.6952 -0.6641
vn 0.0000 0.6952 -0.7188
vn 0.0000 -0.3743 -0.9273
vn 0.0000 0.3743 -0.9273
vn 0.0000 1.0000 0.0000
vn 0.1542 0.9152 -0.3724
vn 0.5083 0.6952 -0.5083
vn 0.2850 -0.9152 -0.2850
vn 0.6557 -0.3743 -0.6557
vn 0.6557 0.3743 -0.6557
vn 0.2850 0.9152 -0.2850
vn 0.5083 -0.6952 -0.5083
vn 0.7071 0.0000 -0.7071
vn 0.6641 -0.6952 -0.2751
vn 0.3724 -0.9152 -0.1542
vn 0.8567 -0.3743 -0.3548
vn 0.8567 0.3743 -0.3548
vn 0.3724 0.9152 -0.1542
vn 0.9239 0.0000 -0.3827
vn 0.6641 0.6952 -0.2751
vn 0.4031 0.9152 0.0000
vn 0.4031 -0.9152 0.0000
vn 0.7188 -0.6952 0.0000
vn 1.0000 0.0000 0.0000
vn 0.7188 0.6952 0.0000
vn 0.9273 -0.3743 0.0000
vn 0.9273 0.3743 0.0000
vn 0.6641 -0.6952 0.2751
vn 0.9239 0.0000 0.3827
vn 0.3724 0.9152 0.1542
vn 0.6641 0.6952 0.2751
vn 0.3724 -0.9152 0.1542
vn 0.8567 -0.3743 0.3548
vn 0.8567 0.3743 0.3548
vn 0.2850 -0.9152 0.2850
vn 0.6557 -0.3743 0.6557
vn 0.6557 0.3743 0.6557
vn 0.2850 0.9152 0.2850
vn 0.5083 -0.6952 0.5083
vn 0.7071 0.0000 0.7071
vn 0.5083 0.6952 0.5083
vn 0.3548 -0.3743 0.8567
vn 0.3548 0.3743 0.8567
vn 0.1542 0.9152 0.3724
vn 0.1542 -0.9152 0.3724
vn 0.2751 -0.6952 0.6641
vn 0.3827 0.0000 0.9239
vn 0.2751 0.6952 0.6641
vn 0.0000 -0.9152 0.4031
vn 0.0000 -0.6952 0.7188
vn 0.0000 0.0000 1.0000
vn 0.0000 0.9152 0.4031
vn 0.0000 0.6952 0.7188
vn 0.0000 -0.3743 0.9273
vn 0.0000 0.3743 0.9273
vn -0.3827 0.0000 0.9239
vn -0.1542 0.9152 0.3724
vn -0.2751 0.6952 0.6641
vn -0.2751 -0.6952 0.6641
vn -0.1542 -0.9152 0.3724
vn -0.3548 -0.3743 0.8567
vn -0.3548 0.3743 0.8567
vn -0.2850 -0.9152 0.2850
vn -0.6557 -0.3743 0.6557
vn -0.6557 0.3743 0.6557
vn -0.2850 0.9152 0.2850
vn -0.5083 -0.6952 0.5083
vn -0.7071 0.0000 0.7071
vn -0.5083 0.6952 0.5083
vn -0.6641 0.6952 0.2751
vn -0.8567 0.3743 0.3548
vn -0.3724 0.9152 0.1542
vn -0.3724 -0.9152 0.1542
vn -0.6641 -0.6952 0.2751
vn -0.9239 0.0000 0.3827
vn -0.8567 -0.3743 0.3548
vn -0.4031 -0.9152 0.0000
vn -0.9273 -0.3743 0.0000
vn -0.7188 -0.6952 0.0000
vn -1.0000 0.0000 0.0000
vn -0.4031 0.9152 0.0000
vn -0.7188 0.6952 0.0000
vn -0.9273 0.3743 0.0000
vn -0.3724 0.9152 -0.1542
vn -0.6641 0.6952 -0.2751
vn -0.3724 -0.9152 -0.1542
vn -0.8567 -0.3743 -0.3548
vn -0.8567 0.3743 -0.3548
vn -0.6641 -0.6952 -0.2751
vn -0.9239 0.0000 -0.3827
vn -0.2850 -0.9152 -0.2850
vn -0.6557 -0.3743 -0.6557
vn -0.6557 0.3743 -0.6557
vn -0.2850 0.9152 -0.2850
vn -0.5083 -0.6952 -0.5083
vn -0.7071 0.0000 -0.7071
vn -0.5083 0.6952 -0.5083
vn -0.1542 0.9152 -0.3724
vn -0.1542 -0.9152 -0.3724
vn -0.2751 -0.6952 -0.6641
vn -0.3827 0.0000 -0.9239
vn -0.2751 0.6952 -0.6641
vn -0.3548 -0.3743 -0.8567
vn -0.3548 0.3743 -0.8567
usemtl Fireball
s 1
f 114/1/1 4/2/2 11/3/3
f 113/4/4 9/5/5 10/6/6
f 112/7/7 7/8/8 8/9/9
f 111/10/10 6/11/11 1/12/12
f 113/4/4 11/3/3 4/2/2
f 112/7/7 9/5/5 3/13/13
f 1/12/12 7/8/8 2/14/14
f 111/10/10 110/15/15 5/16/16
f 5/16/16 13/17/17 6/11/11
f 10/6/6 18/18/18 11/3/3
f 8/9/9 16/19/19 9/5/5
f 6/11/11 14/20/20 7/8/8
f 5/16/16 110/21/15 12/22/21
f 114/23/1 11/3/3 18/18/18
f 9/5/5 17/24/22 10/6/6
f 7/8/8 15/25/23 8/9/9
f 18/18/18 24/26/24 25/27/25
f 15/25/23 23/28/26 16/19/19
f 13/17/17 21/29/27 14/20/20
f 12/22/21 110/30/15 19/31/28
f 114/32/1 18/18/18 25/27/25
f 16/19/19 24/26/24 17/24/22
f 15/25/23 21/29/27 22/33/29
f 13/17/17 19/31/28 20/34/30
f 19/31/28 110/35/15 26/36/31
f 114/37/1 25/27/25 32/38/32
f 23/28/26 31/39/33 24/26/24
f 21/29/27 29/40/34 22/33/29
f 20/34/30 26/36/31 27/41/35
f 25/27/25 31/39/33 32/38/32
f 22/33/29 30/42/36 23/28/26
f 20/34/30 28/43/37 21/29/27
f 30/42/36 38/44/38 31/39/33
f 28/43/37 36/45/39 29/40/34
f 27/41/35 33/46/40 34/47/41
f 31/39/33 39/48/42 32/38/32
f 29/40/34 37/49/43 30/42/36
f 28/43/37 34/47/41 35/50/44
f 26/36/31 110/51/15 33/46/40
f 114/52/1 32/38/32 39/48/42
f 38/44/38 46/53/45 39/48/42
f 36/45/39 44/54/46 37/49/43
f 34/47/41 42/55/47 35/50/44
f 33/46/40 110/56/15 40/57/48
f 114/58/1 39/48/42 46/53/45
f 37/49/43 45/59/49 38/44/38
f 35/50/44 43/60/50 36/45/39
f 34/47/41 40/57/48 41/61/51
f 43/60/50 51/62/52 44/54/46
f 41/61/51 49/63/53 42/55/47
f 40/57/48 110/64/15 47/65/54
f 114/66/1 46/53/45 53/67/55
f 44/54/46 52/68/56 45/59/49
f 43/60/50 49/63/53 50/69/57
f 41/61/51 47/65/54 48/70/58
f 46/53/45 52/68/56 53/67/55
f 114/71/1 53/67/55 60/72/59
f 51/62/52 59/73/60 52/68/56
f 49/63/53 57/74/61 50/69/57
f 48/70/58 54/75/62 55/76/63
f 53/67/55 59/73/60 60/72/59
f 50/69/57 58/77/64 51/62/52
f 48/70/58 56/78/65 49/63/53
f 47/65/54 110/79/15 54/75/62
f 56/78/65 64/80/66 57/74/61
f 55/76/63 61/81/67 62/82/68
f 60/72/59 66/83/69 67/84/70
f 57/74/61 65/85/71 58/77/64
f 55/76/63 63/86/72 56/78/65
f 54/75/62 110/87/15 61/81/67
f 114/88/1 60/72/59 67/84/70
f 58/77/64 66/83/69 59/73/60
f 66/83/69 74/89/73 67/84/70
f 64/80/66 72/90/74 65/85/71
f 62/82/68 70/91/75 63/86/72
f 61/81/67 110/92/15 68/93/76
f 114/94/1 67/84/70 74/89/73
f 66/83/69 72/90/74 73/95/77
f 64/80/66 70/91/75 71/96/78
f 61/81/67 69/97/79 62/82/68
f 70/91/75 76/98/80 77/99/81
f 68/93/76 110/100/15 75/101/82
f 114/102/1 74/89/73 81/103/83
f 72/90/74 80/104/84 73/95/77
f 70/91/75 78/105/85 71/96/78
f 69/97/79 75/101/82 76/98/80
f 73/95/77 81/103/83 74/89/73
f 71/96/78 79/106/86 72/90/74
f 114/107/1 81/103/83 88/108/87
f 80/104/84 86/109/88 87/110/89
f 77/99/81 85/111/90 78/105/85
f 76/98/80 82/112/91 83/113/92
f 81/103/83 87/110/89 88/108/87
f 78/105/85 86/109/88 79/106/86
f 76/98/80 84/114/93 77/99/81
f 75/101/82 110/115/15 82/112/91
f 83/116/92 89/117/94 90/118/95
f 87/119/89 95/120/96 88/121/87
f 85/122/90 93/123/97 86/124/88
f 83/116/92 91/125/98 84/126/93
f 82/127/91 110/128/15 89/117/94
f 114/129/1 88/121/87 95/120/96
f 87/119/89 93/123/97 94/130/99
f 85/122/90 91/125/98 92/131/100
f 94/130/99 102/132/101 95/120/96
f 92/131/100 100/133/102 93/123/97
f 90/118/95 98/134/103 91/125/98
f 89/117/94 110/135/15 96/136/104
f 114/137/1 95/120/96 102/132/101
f 93/123/97 101/138/105 94/130/99
f 92/131/100 98/134/103 99/139/106
f 90/118/95 96/136/104 97/140/107
f 96/136/104 110/141/15 103/142/108
f 114/143/1 102/132/101 109/144/109
f 100/133/102 108/145/110 101/138/105
f 98/134/103 106/146/111 99/139/106
f 97/140/107 103/142/108 104/147/112
f 101/138/105 109/144/109 102/132/101
f 99/139/106 107/148/113 100/133/102
f 97/140/107 105/149/114 98/134/103
f 108/145/110 3/13/13 113/4/4
f 106/146/111 2/14/14 112/7/7
f 103/142/108 1/12/12 104/147/112
f 108/145/110 4/2/2 109/144/109
f 106/146/111 3/13/13 107/148/113
f 105/149/114 1/12/12 2/14/14
f 103/142/108 110/150/15 111/10/10
f 114/151/1 109/144/109 4/2/2
f 113/4/4 3/13/13 9/5/5
f 112/7/7 2/14/14 7/8/8
f 111/10/10 5/16/16 6/11/11
f 113/4/4 10/6/6 11/3/3
f 112/7/7 8/9/9 9/5/5
f 1/12/12 6/11/11 7/8/8
f 5/16/16 12/22/21 13/17/17
f 10/6/6 17/24/22 18/18/18
f 8/9/9 15/25/23 16/19/19
f 6/11/11 13/17/17 14/20/20
f 9/5/5 16/19/19 17/24/22
f 7/8/8 14/20/20 15/25/23
f 18/18/18 17/24/22 24/26/24
f 15/25/23 22/33/29 23/28/26
f 13/17/17 20/34/30 21/29/27
f 16/19/19 23/28/26 24/26/24
f 15/25/23 14/20/20 21/29/27
f 13/17/17 12/22/21 19/31/28
f 23/28/26 30/42/36 31/39/33
f 21/29/27 28/43/37 29/40/34
f 20/34/30 19/31/28 26/36/31
f 25/27/25 24/26/24 31/39/33
f 22/33/29 29/40/34 30/42/36
f 20/34/30 27/41/35 28/43/37
f 30/42/36 37/49/43 38/44/38
f 28/43/37 35/50/44 36/45/39
f 27/41/35 26/36/31 33/46/40
f 31/39/33 38/44/38 39/48/42
f 29/40/34 36/45/39 37/49/43
f 28/43/37 27/41/35 34/47/41
f 38/44/38 45/59/49 46/53/45
f 36/45/39 43/60/50 44/54/46
f 34/47/41 41/61/51 42/55/47
f 37/49/43 44/54/46 45/59/49
f 35/50/44 42/55/47 43/60/50
f 34/47/41 33/46/40 40/57/48
f 43/60/50 50/69/57 51/62/52
f 41/61/51 48/70/58 49/63/53
f 44/54/46 51/62/52 52/68/56
f 43/60/50 42/55/47 49/63/53
f 41/61/51 40/57/48 47/65/54
f 46/53/45 45/59/49 52/68/56
f 51/62/52 58/77/64 59/73/60
f 49/63/53 56/78/65 57/74/61
f 48/70/58 47/65/54 54/75/62
f 53/67/55 52/68/56 59/73/60
f 50/69/57 57/74/61 58/77/64
f 48/70/58 55/76/63 56/78/65
f 56/78/65 63/86/72 64/80/66
f 55/76/63 54/75/62 61/81/67
f 60/72/59 59/73/60 66/83/69
f 57/74/61 64/80/66 65/85/71
f 55/76/63 62/82/68 63/86/72
f 58/77/64 65/85/71 66/83/69
f 66/83/69 73/95/77 74/89/73
f 64/80/66 71/96/78 72/90/74
f 62/82/68 69/97/79 70/91/75
f 66/83/69 65/85/71 72/90/74
f 64/80/66 63/86/72 70/91/75
f 61/81/67 68/93/76 69/97/79
f 70/91/75 69/97/79 76/98/80
f 72/90/74 79/106/86 80/104/84
f 70/91/75 77/99/81 78/105/85
f 69/97/79 68/93/76 75/101/82
f 73/95/77 80/104/84 81/103/83
f 71/96/78 78/105/85 79/106/86
f 80/104/84 79/106/86 86/109/88
f 77/99/81 84/114/93 85/111/90
f 76/98/80 75/101/82 82/112/91
f 81/103/83 80/104/84 87/110/89
f 78/105/85 85/111/90 86/109/88
f 76/98/80 83/113/92 84/114/93
f 83/116/92 82/127/91 89/117/94
f 87/119/89 94/130/99 95/120/96
f 85/122/90 92/131/100 93/123/97
f 83/116/92 90/118/95 91/125/98
f 87/119/89 86/124/88 93/123/97
f 85/122/90 84/126/93 91/125/98
f 94/130/99 101/138/105 102/132/101
f 92/131/100 99/139/106 100/133/102
f 90/118/95 97/140/107 98/134/103
f 93/123/97 100/133/102 101/138/105
f 92/131/100 91/125/98 98/134/103
f 90/118/95 89/117/94 96/136/104
f 100/133/102 107/148/113 108/145/110
f 98/134/103 105/149/114 106/146/111
f 97/140/107 96/136/104 103/142/108
f 101/138/105 108/145/110 109/144/109
f 99/139/106 106/146/111 107/148/113
f 97/140/107 104/147/112 105/149/114
f 108/145/110 107/148/113 3/13/13
f 106/146/111 105/149/114 2/14/14
f 103/142/108 111/10/10 1/12/12
f 108/145/110 113/4/4 4/2/2
f 106/146/111 112/7/7 3/13/13
f 105/149/114 104/147/112 1/12/12
