# Blender v2.91.0 OBJ File: 'E0M1.Collision.blend'
# www.blender.org
mtllib E0M1.Collision.mtl
o DeliveryZone.BoxShape
v -1.750000 -0.500000 3.000000
v -1.750000 0.500000 3.000000
v -1.750000 -0.500000 -3.000000
v -1.750000 0.500000 -3.000000
v 1.750000 -0.500000 3.000000
v 1.750000 0.500000 3.000000
v 1.750000 -0.500000 -3.000000
v 1.750000 0.500000 -3.000000
vt 0.625000 0.000000
vt 0.375000 0.250000
vt 0.375000 0.000000
vt 0.625000 0.250000
vt 0.375000 0.500000
vt 0.625000 0.500000
vt 0.375000 0.750000
vt 0.625000 0.750000
vt 0.375000 1.000000
vt 0.125000 0.750000
vt 0.125000 0.500000
vt 0.875000 0.500000
vt 0.625000 1.000000
vt 0.875000 0.750000
vn -1.0000 0.0000 0.0000
vn 0.0000 0.0000 -1.0000
vn 1.0000 0.0000 0.0000
vn 0.0000 0.0000 1.0000
vn 0.0000 -1.0000 0.0000
vn 0.0000 1.0000 0.0000
usemtl None
s off
f 2/1/1 3/2/1 1/3/1
f 4/4/2 7/5/2 3/2/2
f 8/6/3 5/7/3 7/5/3
f 6/8/4 1/9/4 5/7/4
f 7/5/5 1/10/5 3/11/5
f 4/12/6 6/8/6 8/6/6
f 2/1/1 4/4/1 3/2/1
f 4/4/2 8/6/2 7/5/2
f 8/6/3 6/8/3 5/7/3
f 6/8/4 2/13/4 1/9/4
f 7/5/5 5/7/5 1/10/5
f 4/12/6 2/14/6 6/8/6
o World.MeshShape
v 1.377402 15.323977 -2.865691
v 2.788265 16.280493 -2.865691
v 4.844776 17.141357 -2.865691
v 8.917632 18.618900 -2.865691
v 10.017484 20.594690 -2.865691
v 8.697401 17.457684 -2.865691
v 10.297000 22.744059 -2.865691
v 12.380016 27.948898 -2.865691
v 8.357044 17.464357 -2.865691
v -11.156647 20.814964 -2.865691
v -11.114661 27.641844 -2.865691
v -7.805151 15.706220 -2.865691
v -10.033223 15.516226 -2.865691
v -10.780728 16.276201 -2.865691
v -4.457351 15.371803 -2.865691
v -1.731278 15.204412 -2.865691
v -0.966064 14.845718 -2.865691
v 0.086104 15.347890 -2.865691
v -11.156647 20.814964 2.948334
v -11.114661 27.641844 2.948334
v -10.033223 15.516226 2.948334
v -7.805151 15.706220 2.948334
v -10.780728 16.276201 2.948334
v -4.457351 15.371803 2.948334
v -0.966064 14.845718 2.948334
v -1.731278 15.204412 2.948334
v 0.086104 15.347890 2.948334
v 2.788265 16.280493 2.948334
v 1.377402 15.323977 2.948334
v 8.357044 17.464357 2.948334
v 4.844776 17.141357 2.948334
v 10.017484 20.594690 2.948334
v 8.697401 17.457684 2.948334
v 8.917632 18.618900 2.948334
v 10.297000 22.744059 2.948334
v 12.380016 27.948898 2.948334
v -7.296327 16.252771 -0.648935
v -7.822125 16.258015 -2.865691
v -5.375024 16.247240 -1.249181
v -4.528780 16.241308 -2.865691
v -6.759225 16.252771 1.096874
v -7.734515 16.246561 2.948334
v -5.424432 16.247240 1.087028
v -4.469563 16.246172 2.948334
v -7.302145 14.450175 -0.648935
v -5.380843 14.444644 -1.249181
v -6.765044 14.450175 1.096874
v -5.430250 14.444644 1.087028
v -7.737712 14.450850 -1.396651
v -4.513149 14.440954 -1.396651
v -7.737712 14.450850 1.675288
v -4.513149 14.440954 1.675288
v -8.691941 12.686821 -1.396650
v -2.637681 14.689598 -1.396650
v -8.691941 12.686821 1.675288
v -2.637681 14.689598 1.675288
v -9.415854 10.701347 -1.396650
v -3.401449 8.419724 -1.396651
v -9.415854 10.701347 1.675288
v -3.401449 8.419724 1.675288
v -9.146867 7.853937 -1.396650
v -4.107615 6.867228 -1.396651
v -9.146867 7.853937 1.675288
v -4.107615 6.867228 1.675288
v -8.394021 5.158251 -1.396650
v -3.255132 4.525623 -1.396650
v -8.394021 5.158251 1.675288
v -3.255132 4.525623 1.675288
v -8.162354 2.495221 -1.396650
v -3.023466 2.496858 -1.396650
v -8.162354 2.495221 1.675288
v -3.023466 2.496858 1.675288
v -7.786858 1.595274 -1.396650
v -3.316830 1.527718 -1.396650
v -7.786858 1.595274 1.675288
v -3.316830 1.527718 1.675288
v -6.844199 0.742015 -1.396650
v -4.115516 0.720588 -1.396650
v -6.844199 0.742015 1.675288
v -4.115516 0.720588 1.675288
v -6.040980 0.382799 -0.902779
v -5.151854 0.330226 -0.902779
v -6.040980 0.382799 2.655809
v -5.151854 0.330226 2.655809
v 0.629309 13.867613 -1.396650
v 0.629309 13.867613 1.675288
v 0.164452 9.550629 -1.396650
v 0.164452 9.550629 1.675288
v 3.343590 13.886208 -1.396650
v 3.343590 13.886208 1.675288
v 2.878734 9.569223 -1.396650
v 2.878734 9.569223 1.675288
v 6.564279 14.889448 -2.673975
v 6.564279 14.889448 2.952613
v 4.935197 8.421432 -2.673975
v 4.935197 8.421432 2.952613
v 8.122723 14.306347 -2.673975
v 8.122723 14.306347 2.952613
v 6.493641 7.838331 -2.673975
v 6.493641 7.838331 2.952613
v 9.523966 11.905483 -2.673975
v 9.523966 11.905483 2.952613
v 7.053041 6.855915 -2.673975
v 7.053041 6.855915 2.952613
v 11.010977 7.640124 -2.673975
v 11.010977 7.640124 2.952612
v 7.052413 5.957924 -2.673975
v 7.052413 5.957924 2.952613
v 12.654485 5.232425 -2.673975
v 12.654485 5.232425 2.952612
v 6.331843 5.545276 -2.673975
v 6.331843 5.545276 2.952613
v 13.266381 3.380686 -2.673975
v 13.266381 3.380686 2.952612
v 5.467632 2.332750 -2.673975
v 5.467632 2.332750 2.952613
v 12.968231 1.617554 -2.673975
v 12.968231 1.617554 2.952612
v 11.558258 0.373574 -2.673975
v 11.558258 0.373574 2.952613
v 8.609753 0.299273 -2.673975
v 8.609753 0.299273 2.952613
v 10.352781 0.012249 -2.673975
v 10.352781 0.012249 2.952613
v 2.795927 6.491089 -2.673975
v 2.795927 6.491089 2.952613
v 1.850992 3.659123 -2.673975
v 1.850992 3.659123 2.952613
v 1.682655 7.221426 -1.581763
v 1.682655 7.221426 2.376923
v 0.787516 3.836318 -1.581764
v 0.787516 3.836318 2.376922
v 0.791444 7.868731 -1.581763
v 0.791444 7.868731 2.376923
v -0.737959 3.953148 -1.581764
v -0.737959 3.953148 2.376922
v -0.226717 8.216120 -1.581763
v -0.226717 8.216120 2.376923
v -1.617735 4.289004 -1.581764
v -1.617735 4.289004 2.376922
v -1.429457 8.182925 -1.581763
v -1.429457 8.182925 2.376923
v -2.509110 5.132248 -1.581764
v -2.509110 5.132248 2.376922
v -2.297647 7.828060 -1.715224
v -2.297647 7.828060 1.993864
v -2.937003 5.981210 -1.715225
v -2.937003 5.981210 1.993863
v -2.672344 7.385038 -0.359253
v -2.672344 7.385038 2.112284
v -2.898992 6.705775 -0.359253
v -2.898992 6.705775 2.112283
v -7.290775 16.252771 0.442638
v -7.296593 14.450175 0.442638
v -6.309726 16.250006 -1.217527
v -6.315544 14.447410 -1.217527
v -4.909509 14.444644 -0.067780
v -4.903690 16.247240 -0.067780
v -4.676459 16.246943 -0.080046
vt 1.000000 0.605475
vt 1.000000 0.357568
vt 1.000000 0.605475
vt 1.000000 0.663822
vt 1.000000 0.325258
vt 1.000000 0.651919
vt 1.000000 0.677388
vt 1.000000 0.350727
vt 1.000000 0.677388
vt 1.000000 0.337161
vt 1.000000 0.359800
vt 1.000000 0.359800
vt 1.000000 0.357568
vt 1.000000 0.605475
vt 1.000000 0.357568
vt 1.000000 0.605475
vt 1.000000 0.357568
vt 1.000000 0.357568
vt 1.000000 0.655252
vt 1.000000 0.337916
vt 1.000000 0.664577
vt 1.000000 0.346336
vt 1.000000 0.672997
vt 1.000000 0.677388
vt 1.000000 0.359800
vt 1.000000 0.607707
vt 1.000000 0.359800
vt 1.000000 0.648178
vt 1.000000 0.326114
vt 1.000000 0.652775
vt 1.000000 0.605475
vt 1.000000 0.606591
vt 1.000000 0.606591
vt 1.000000 0.607707
vt 1.000000 0.607707
vt 1.000000 0.359800
vt 1.000000 0.607707
vt 1.000000 0.607707
vt 1.000000 0.321527
vt 1.000000 0.648188
vt 1.000000 0.325258
vt 1.000000 0.651919
vt 1.000000 0.605475
vt 1.000000 0.605475
vt 1.000000 0.605475
vt 1.000000 0.357568
vt 1.000000 0.605475
vt 1.000000 0.605475
vt 1.000000 0.655887
vt 1.000000 0.329226
vt 1.000000 0.655887
vt 1.000000 0.605475
vt 1.000000 0.605475
vt 1.000000 0.605475
vt 1.000000 0.357568
vt 1.000000 0.357568
vt 1.000000 0.357568
vt 1.000000 0.605475
vt 1.000000 0.605475
vt 1.000000 0.605475
vt 1.000000 0.350727
vt 1.000000 0.605475
vt 1.000000 0.605475
vt 1.000000 0.320070
vt 1.000000 0.329226
vt 1.000000 0.357568
vt 1.000000 0.357568
vt 1.000000 0.357568
vt 1.000000 0.605475
vt 1.000000 0.481521
vt 1.000000 0.481521
vt 1.000000 0.605475
vt 1.000000 0.605475
vt 1.000000 0.605475
vt 1.000000 0.357568
vt 1.000000 0.357568
vt 1.000000 0.359800
vt 1.000000 0.605475
vt 1.000000 0.357568
vt 1.000000 0.605475
vt 1.000000 0.605475
vt 1.000000 0.357568
vt 1.000000 0.607707
vt 1.000000 0.483754
vt 1.000000 0.483754
vt 1.000000 0.359800
vt 1.000000 0.647952
vt 1.000000 0.351101
vt 1.000000 0.677762
vt 1.000000 0.605475
vt 1.000000 0.357568
vt 1.000000 0.357568
vt 1.000000 0.399036
vt 1.000000 0.725697
vt 1.000000 0.357568
vt 1.000000 0.357568
vt 1.000000 0.328591
vt 1.000000 0.357568
vt 1.000000 0.357568
vt 1.000000 0.357568
vt 1.000000 0.357568
vt 1.000000 0.644070
vt 1.000000 0.647955
vt 1.000000 0.325670
vt 1.000000 0.321517
vt 1.000000 0.607707
vt 1.000000 0.357568
vt 1.000000 0.607707
vt 1.000000 0.607707
vt 1.000000 0.359800
vt 1.000000 0.357568
vt 1.000000 0.359800
vt 1.000000 0.357568
vt 1.000000 0.357568
vt 1.000000 0.605475
vt 1.000000 0.357568
vt 1.000000 0.357568
vt 1.000000 0.605475
vt 1.000000 0.605475
vt 1.000000 0.605475
vt 1.000000 0.605475
vt 1.000000 0.357568
vt 1.000000 0.357568
vt 1.000000 0.605475
vt 1.000000 0.605475
vt 1.000000 0.357568
vt 1.000000 0.357568
vt 1.000000 0.357568
vt 1.000000 0.357568
vt 1.000000 0.605475
vt 1.000000 0.605475
vt 0.000000 0.000000
vt 1.000000 0.605475
vt 1.000000 0.607707
vt 1.000000 0.357568
vt 1.000000 0.357568
vt 1.000000 0.357568
vt 1.000000 0.357568
vt 1.000000 0.357568
vt 1.000000 0.607707
vt 1.000000 0.652331
vt 1.000000 0.605475
vt 1.000000 0.605475
vt 1.000000 0.605475
vt 1.000000 0.357568
vt 1.000000 0.357568
vt 1.000000 0.350727
vt 1.000000 0.525072
vt 1.000000 0.317409
vt 1.000000 0.605475
vt 1.000000 0.321294
vt 1.000000 0.605475
vt 1.000000 0.359800
vt 1.000000 0.605475
vt 1.000000 0.357568
vt 1.000000 0.605475
vt 1.000000 0.605475
vt 1.000000 0.605475
vt 1.000000 0.321291
vt 1.000000 0.359800
vt 1.000000 0.357568
vt 1.000000 0.648862
vn -0.9571 0.2897 0.0000
vn 0.0613 0.9981 0.0000
vn 0.0196 0.9998 0.0000
vn 0.0000 -0.0000 -1.0000
vn -0.7108 0.7034 0.0000
vn 0.3784 -0.9257 0.0000
vn -0.9284 0.3716 0.0000
vn -0.9916 0.1290 0.0000
vn -0.9825 0.1863 0.0000
vn 0.9631 0.2690 0.0000
vn 0.7129 0.7012 0.0000
vn 0.0338 -0.0001 0.9994
vn 0.8796 -0.4758 0.0000
vn 0.9229 0.3851 0.0000
vn -0.0850 0.9964 0.0000
vn 0.4244 0.9055 0.0000
vn -0.0000 -0.0000 1.0000
vn -0.2584 -0.9660 0.0000
vn 0.0185 0.9998 0.0000
vn -0.9288 0.0030 0.3706
vn -0.0074 0.0000 -1.0000
vn 0.0069 -1.0000 0.0000
vn 0.1314 -0.9913 0.0000
vn 1.0000 -0.0032 -0.0051
vn 0.9395 -0.3425 0.0000
vn -0.3861 0.9224 0.0000
vn -0.9397 -0.3421 0.0000
vn 0.0131 -0.9999 0.0000
vn -0.0005 -1.0000 0.0004
vn -0.8637 -0.5041 0.0000
vn 0.8930 0.4501 0.0000
vn 0.0051 1.0000 0.0012
vn 0.9966 0.0825 0.0000
vn 0.9956 0.0940 0.0000
vn -0.4307 0.9025 0.0000
vn 0.9962 0.0867 0.0000
vn -0.8737 0.4864 0.0000
vn -0.0041 -1.0000 0.0002
vn 1.0000 -0.0007 0.0000
vn -0.0563 -0.9515 -0.3025
vn -0.2440 -0.9698 0.0000
vn 0.4874 0.8732 0.0000
vn -0.8259 -0.5638 0.0000
vn 0.9486 -0.3165 0.0000
vn 0.0061 0.7782 0.6279
vn -0.3504 -0.9366 0.0000
vn 0.3443 0.9389 0.0000
vn 0.3934 -0.0991 0.9140
vn 0.4970 -0.8678 0.0000
vn 0.5048 -0.0544 -0.8615
vn 0.1625 0.9867 0.0000
vn 0.3504 0.9366 0.0000
vn -0.0093 -1.0000 0.0000
vn -0.9116 0.0029 -0.4111
vn -0.9103 0.4140 0.0000
vn 0.5433 0.8395 0.0000
vn 0.4083 0.9129 0.0000
vn -0.3525 0.9358 0.0000
vn -0.3023 0.9532 0.0000
vn -0.9443 -0.3292 0.0000
vn 0.8690 0.4948 0.0000
vn -0.2871 0.9579 0.0000
vn -0.9860 0.1667 0.0000
vn 0.1644 0.9864 0.0000
vn 0.6792 -0.2266 0.6981
vn -0.0916 0.9958 0.0000
vn 0.0188 0.9998 -0.0010
vn 0.0764 0.9971 0.0000
vn -0.9495 -0.3138 0.0000
vn 0.2974 -0.9548 0.0000
vn -0.0026 -1.0000 0.0095
vn 0.3566 0.9342 0.0000
vn -0.0031 -1.0000 -0.0040
vn -0.9935 -0.1135 0.0000
vn -0.0015 -1.0000 0.0000
vn -0.9994 -0.0307 0.0150
vn 0.0035 1.0000 -0.0018
vn 0.6711 0.7414 0.0000
vn -0.3229 -0.9464 0.0000
vn 0.6872 0.7264 0.0000
vn -0.0031 -1.0000 -0.0014
vn 0.0276 -0.9996 0.0000
vn 0.0029 1.0000 -0.0022
vn -0.5877 -0.8091 0.0000
vn -0.1759 0.0609 0.9825
vn -0.4795 0.1660 -0.8617
vn 0.9369 -0.3126 0.1568
vn 0.9999 0.0140 -0.0102
vn 0.4010 -0.1060 -0.9099
vn -0.9916 0.1296 0.0000
vn 0.0102 0.9999 -0.0001
vn -0.0016 -1.0000 0.0000
vn -0.0069 1.0000 0.0000
vn -0.5612 0.8277 0.0000
vn 1.0000 -0.0062 0.0000
vn 0.4593 -0.1625 -0.8733
vn -0.5485 -0.8361 0.0000
vn 0.0001 1.0000 0.0034
vn 0.9986 -0.0524 0.0000
vn 0.7635 -0.6458 0.0000
vn 0.7761 -0.0025 -0.6306
vn 0.4993 -0.0016 0.8664
vn -0.0031 -1.0000 0.0052
vn -0.0073 -0.9264 -0.3765
vn 0.0590 0.9983 0.0000
vn 0.0499 0.8446 0.5331
vn -0.6616 0.7499 0.0000
vn 0.5048 -0.0544 0.8615
vn 0.3934 -0.0991 -0.9140
vn -0.0040 -1.0000 0.0016
vn 0.6324 -0.1672 0.7564
vn 0.0041 1.0000 -0.0015
vn -0.0025 1.0000 0.0020
vn -0.0026 1.0000 0.0020
vn 0.0007 1.0000 0.0002
vn 0.0013 1.0000 -0.0005
vn 1.0000 -0.0061 0.0000
vn 0.0013 1.0000 0.0006
vn 0.4515 -0.1563 -0.8785
vn -0.4573 0.1526 -0.8761
vn 0.4511 -0.1505 -0.8797
vn 0.9348 -0.3236 0.1467
vn -0.0006 1.0000 -0.0060
vn -0.1799 0.0637 0.9816
vn 0.9966 0.0819 0.0000
vn -0.0025 -1.0000 0.0005
usemtl Material
s off
f 82/15/7 80/16/7 78/17/7
f 23/18/8 34/19/8 24/20/8
f 17/21/9 41/22/9 14/23/9
f 23/18/8 32/24/8 34/19/8
f 63/25/10 59/26/10 60/27/10
f 86/28/11 84/29/11 82/15/11
f 149/30/12 150/31/12 154/32/12
f 15/33/13 44/34/13 16/35/13
f 40/36/14 15/33/14 13/37/14
f 41/22/15 12/38/15 14/23/15
f 75/39/16 69/40/16 71/41/16
f 22/42/17 29/43/17 21/44/17
f 54/45/18 163/46/18 164/47/18
f 63/25/19 61/48/19 57/49/19
f 79/50/20 81/51/20 77/52/20
f 21/44/21 30/53/21 20/54/21
f 24/20/22 33/55/22 25/56/22
f 109/57/23 105/58/23 101/59/23
f 134/60/24 133/61/24 119/62/24
f 26/63/25 37/64/25 9/65/25
f 113/66/23 111/67/23 115/68/23
f 116/69/10 124/70/10 120/71/10
f 121/72/23 117/73/23 129/74/23
f 41/22/15 42/75/15 12/38/15
f 101/59/23 103/76/23 109/57/23
f 119/62/23 133/61/23 135/77/23
f 34/19/10 52/78/10 35/79/10
f 122/80/10 126/81/10 128/82/10
f 47/83/26 165/84/26 166/85/26
f 147/86/23 145/87/23 151/88/23
f 51/89/27 56/90/27 55/91/27
f 97/92/28 94/93/28 93/94/28
f 60/27/29 62/95/29 64/96/29
f 82/15/7 84/29/7 80/16/7
f 45/97/30 161/98/30 162/99/30
f 67/100/31 61/48/31 63/25/31
f 10/101/32 39/102/32 11/103/32
f 70/104/33 76/105/33 72/106/33
f 44/34/34 28/107/34 19/108/34
f 162/99/35 55/91/35 59/26/35
f 114/109/10 116/69/10 112/110/10
f 47/83/26 54/45/26 165/84/26
f 15/33/13 43/111/13 44/34/13
f 105/58/36 110/112/36 106/113/36
f 151/88/37 156/114/37 152/115/37
f 45/97/38 48/116/38 46/117/38
f 27/118/39 31/119/39 22/42/39
f 71/41/40 65/120/40 67/100/40
f 25/56/41 35/79/41 26/63/41
f 26/63/23 9/65/23 10/101/23
f 102/121/10 106/113/10 110/112/10
f 79/50/42 73/122/42 75/39/42
f 42/75/43 13/37/43 12/38/43
f 85/123/23 86/28/23 78/17/23
f 60/27/44 55/91/44 56/90/44
f 116/69/45 111/67/45 112/110/45
f 87/124/46 92/125/46 91/126/46
f 93/94/47 64/96/47 62/95/47
f 114/109/10 118/127/10 116/69/10
f 104/128/48 99/129/48 100/130/48
f 117/73/49 118/127/49 114/109/49
f 160/131/50 159/132/50 157/133/50
f 113/66/23 107/134/23 111/67/23
f 85/123/51 90/135/51 86/28/51
f 105/58/52 102/121/52 101/59/52
f 135/77/53 136/136/53 124/70/53
f 71/41/10 67/100/10 68/137/10
f 70/104/23 66/138/23 69/40/23
f 97/92/54 103/76/54 101/59/54
f 105/58/36 109/57/36 110/112/36
f 120/71/55 115/68/55 116/69/55
f 24/20/23 25/56/23 26/63/23
f 73/122/23 77/52/23 74/139/23
f 86/28/23 82/15/23 78/17/23
f 98/140/56 104/128/56 100/130/56
f 132/141/57 129/74/57 130/142/57
f 108/143/58 103/76/58 104/128/58
f 62/95/23 58/144/23 66/138/23
f 132/141/57 131/145/57 129/74/57
f 165/146/59 58/144/59 60/27/59
f 51/89/60 165/84/60 56/90/60
f 117/73/49 114/109/49 113/66/49
f 66/138/61 70/104/61 72/106/61
f 130/142/62 129/74/62 123/147/62
f 87/124/63 91/126/63 89/148/63
f 88/149/64 90/135/64 92/125/64
f 96/150/65 66/138/65 68/137/65
f 146/151/10 142/152/10 144/153/10
f 113/66/66 110/112/66 109/57/66
f 88/149/64 86/28/64 90/135/64
f 45/97/30 162/99/30 53/154/30
f 130/142/62 123/147/62 124/70/62
f 19/108/23 18/155/23 48/116/23
f 12/38/23 13/37/23 11/103/23
f 112/110/67 107/134/67 108/143/67
f 116/69/10 118/127/10 130/142/10
f 131/145/68 128/82/68 127/156/68
f 125/157/69 122/80/69 121/72/69
f 17/21/23 14/23/23 12/38/23
f 69/40/23 73/122/23 70/104/23
f 136/136/70 139/158/70 140/159/70
f 152/115/10 150/31/10 146/151/10
f 144/153/10 148/160/10 146/151/10
f 133/61/71 139/158/71 135/77/71
f 11/103/72 39/102/72 38/161/72
f 167/162/73 52/163/73 48/116/73
f 143/164/74 140/159/74 139/158/74
f 121/72/75 118/127/75 117/73/75
f 101/59/76 98/140/76 97/92/76
f 27/118/39 22/42/39 18/155/39
f 134/60/24 119/62/24 120/71/24
f 10/101/23 11/103/23 19/108/23
f 58/144/77 54/45/77 164/47/77
f 147/86/78 144/153/78 143/164/78
f 102/121/10 110/112/10 104/128/10
f 60/27/79 59/26/79 55/91/79
f 78/17/80 76/105/80 74/139/80
f 162/99/81 59/26/81 57/49/81
f 20/54/82 50/165/82 46/117/82
f 22/42/17 31/119/17 29/43/17
f 47/83/83 167/162/83 48/116/83
f 149/30/12 154/32/12 153/166/12
f 87/124/84 81/51/84 83/167/84
f 146/151/85 141/168/85 142/152/85
f 151/88/86 148/160/86 147/86/86
f 60/27/87 56/90/87 165/146/87
f 67/100/31 65/120/31 61/48/31
f 150/31/88 145/87/88 146/151/88
f 47/83/89 48/116/89 163/46/89
f 112/110/67 111/67/67 107/134/67
f 138/169/90 141/168/90 137/170/90
f 44/34/34 19/108/34 16/35/34
f 79/50/42 77/52/42 73/122/42
f 149/30/91 153/166/91 155/171/91
f 154/32/92 156/114/92 160/131/92
f 146/151/85 145/87/85 141/168/85
f 153/166/93 157/133/93 159/132/93
f 48/116/94 52/163/94 32/24/94
f 42/75/43 40/36/43 13/37/43
f 134/60/95 140/159/95 138/169/95
f 20/54/96 30/53/96 50/165/96
f 45/97/97 46/117/97 161/98/97
f 42/75/10 41/22/10 38/161/10
f 53/154/98 162/99/98 57/49/98
f 94/93/10 98/140/10 100/130/10
f 143/164/74 144/153/74 140/159/74
f 101/59/76 102/121/76 98/140/76
f 100/130/99 99/129/99 95/172/99
f 121/72/75 122/80/75 118/127/75
f 9/65/100 36/173/100 10/101/100
f 78/17/80 80/16/80 76/105/80
f 104/128/48 103/76/48 99/129/48
f 95/172/23 99/129/23 93/94/23
f 136/136/70 135/77/70 139/158/70
f 63/25/10 60/27/10 68/137/10
f 151/88/86 152/115/86 148/160/86
f 64/96/10 96/150/10 68/137/10
f 28/107/101 18/155/101 19/108/101
f 51/89/27 55/91/27 49/174/27
f 150/31/102 152/115/102 156/114/102
f 64/96/10 94/93/10 96/150/10
f 25/56/41 33/55/41 35/79/41
f 60/27/10 64/96/10 68/137/10
f 11/103/72 38/161/72 17/21/72
f 134/60/103 138/169/103 137/170/103
f 125/157/69 126/81/69 122/80/69
f 115/68/23 129/74/23 117/73/23
f 131/145/23 127/156/23 121/72/23
f 49/174/104 50/165/104 52/163/104
f 97/92/28 98/140/28 94/93/28
f 76/105/10 80/16/10 79/50/10
f 72/106/10 76/105/10 75/39/10
f 87/124/10 80/16/10 88/149/10
f 58/144/23 57/49/23 61/48/23
f 80/16/10 84/29/10 88/149/10
f 48/116/23 24/20/23 26/63/23
f 87/124/10 83/167/10 79/50/10
f 75/39/10 71/41/10 72/106/10
f 130/142/10 124/70/10 116/69/10
f 156/114/105 155/171/105 159/132/105
f 124/70/10 136/136/10 120/71/10
f 51/89/60 166/85/60 165/84/60
f 154/32/106 158/175/106 157/133/106
f 131/145/68 132/141/68 128/82/68
f 87/124/10 79/50/10 80/16/10
f 93/94/47 94/93/47 64/96/47
f 72/106/10 71/41/10 68/137/10
f 79/50/10 75/39/10 76/105/10
f 35/79/10 52/78/10 36/173/10
f 138/169/10 140/159/10 144/153/10
f 132/141/10 130/142/10 122/80/10
f 55/91/107 161/98/107 49/174/107
f 28/107/10 39/102/10 36/173/10
f 28/107/10 43/111/10 39/102/10
f 36/173/10 37/64/10 35/79/10
f 164/47/108 45/97/108 53/154/108
f 87/124/63 89/148/63 85/123/63
f 108/143/10 104/128/10 110/112/10
f 108/143/10 114/109/10 112/110/10
f 52/78/10 28/107/10 36/173/10
f 26/63/23 10/101/23 48/116/23
f 110/112/10 114/109/10 108/143/10
f 60/27/29 58/144/29 62/95/29
f 43/111/10 40/36/10 39/102/10
f 28/107/10 44/34/10 43/111/10
f 57/49/109 58/144/109 164/47/109
f 40/36/10 42/75/10 39/102/10
f 42/75/10 38/161/10 39/102/10
f 27/118/10 28/107/10 52/78/10
f 118/127/10 122/80/10 130/142/10
f 50/165/10 27/118/10 52/78/10
f 31/119/10 27/118/10 50/165/10
f 87/124/84 85/123/84 81/51/84
f 71/41/40 69/40/40 65/120/40
f 87/124/110 88/149/110 92/125/110
f 89/148/111 92/125/111 90/135/111
f 147/86/78 148/160/78 144/153/78
f 120/71/55 119/62/55 115/68/55
f 96/150/65 95/172/65 66/138/65
f 145/87/23 149/30/23 151/88/23
f 143/164/23 139/158/23 137/170/23
f 85/123/112 89/148/112 90/135/112
f 65/120/23 69/40/23 66/138/23
f 50/165/10 30/53/10 29/43/10
f 126/81/113 127/156/113 128/82/113
f 108/143/58 107/134/58 103/76/58
f 97/92/114 99/129/114 103/76/114
f 67/100/10 63/25/10 68/137/10
f 70/104/33 74/139/33 76/105/33
f 136/136/10 134/60/10 120/71/10
f 63/25/19 57/49/19 59/26/19
f 74/139/23 70/104/23 73/122/23
f 98/140/115 102/121/115 104/128/115
f 78/17/23 77/52/23 85/123/23
f 18/155/23 46/176/23 48/116/23
f 61/48/23 65/120/23 66/138/23
f 78/17/23 74/139/23 77/52/23
f 15/33/23 19/108/23 11/103/23
f 151/88/37 155/171/37 156/114/37
f 128/82/10 132/141/10 122/80/10
f 48/116/23 23/18/23 24/20/23
f 34/19/10 32/24/10 52/78/10
f 58/144/116 165/84/116 54/45/116
f 50/165/10 29/43/10 31/119/10
f 147/86/23 143/164/23 145/87/23
f 19/108/23 48/116/23 10/101/23
f 10/101/32 36/173/32 39/102/32
f 15/33/23 16/35/23 19/108/23
f 13/37/23 15/33/23 11/103/23
f 11/103/23 17/21/23 12/38/23
f 126/81/113 125/157/113 127/156/113
f 21/44/23 20/54/23 46/176/23
f 89/148/111 91/126/111 92/125/111
f 141/168/23 145/87/23 143/164/23
f 77/52/23 81/51/23 85/123/23
f 164/47/108 163/46/108 45/97/108
f 22/42/23 21/44/23 46/176/23
f 18/155/23 22/42/23 46/176/23
f 133/61/117 137/170/117 139/158/117
f 142/152/10 138/169/10 144/153/10
f 135/77/53 124/70/53 123/147/53
f 52/163/118 51/89/118 49/174/118
f 148/160/10 152/115/10 146/151/10
f 17/21/9 38/161/9 41/22/9
f 55/91/107 162/99/107 161/98/107
f 66/138/23 58/144/23 61/48/23
f 66/138/23 95/172/23 62/95/23
f 49/174/119 161/98/119 50/165/119
f 46/117/120 50/165/120 161/98/120
f 160/131/50 157/133/50 158/175/50
f 52/163/121 167/162/121 51/89/121
f 141/168/23 143/164/23 137/170/23
f 21/44/21 29/43/21 30/53/21
f 167/162/122 47/83/122 166/85/122
f 150/31/88 149/30/88 145/87/88
f 9/65/100 37/64/100 36/173/100
f 28/107/123 27/118/123 18/155/123
f 119/62/23 135/77/23 123/147/23
f 93/94/23 62/95/23 95/172/23
f 167/162/124 166/85/124 51/89/124
f 75/39/16 73/122/16 69/40/16
f 40/36/14 43/111/14 15/33/14
f 35/79/10 33/55/10 34/19/10
f 66/138/61 72/106/61 68/137/61
f 123/147/23 129/74/23 115/68/23
f 79/50/20 83/167/20 81/51/20
f 154/32/106 157/133/106 153/166/106
f 156/114/105 159/132/105 160/131/105
f 94/93/10 100/130/10 96/150/10
f 100/130/99 95/172/99 96/150/99
f 54/45/18 47/83/18 163/46/18
f 26/63/25 35/79/25 37/64/25
f 116/69/45 115/68/45 111/67/45
f 150/31/125 156/114/125 154/32/125
f 107/134/23 109/57/23 103/76/23
f 154/32/126 160/131/126 158/175/126
f 117/73/23 113/66/23 115/68/23
f 86/28/11 88/149/11 84/29/11
f 105/58/52 106/113/52 102/121/52
f 115/68/23 119/62/23 123/147/23
f 134/60/127 136/136/127 140/159/127
f 99/129/23 97/92/23 93/94/23
f 153/166/128 159/132/128 155/171/128
f 48/116/129 45/97/129 163/46/129
f 113/66/23 109/57/23 107/134/23
f 138/169/90 142/152/90 141/168/90
f 149/30/130 155/171/130 151/88/130
f 127/156/23 125/157/23 121/72/23
f 113/66/66 114/109/66 110/112/66
f 133/61/103 134/60/103 137/170/103
f 129/74/23 131/145/23 121/72/23
f 48/116/131 32/24/131 23/18/131
f 24/20/22 34/19/22 33/55/22
f 164/47/132 53/154/132 57/49/132
