# Blender v2.91.0 OBJ File: 'E1M0.Collision.blend'
# www.blender.org
mtllib E1M0.Collision.mtl
o World.MeshShape
v 10.751741 0.751741 3.938760
v 10.751741 8.248259 3.938760
v 10.751741 0.751741 -3.965915
v 10.751741 8.248259 -3.965915
v 17.248259 0.751741 3.938760
v 17.248259 8.248259 3.938760
v 17.248259 0.751741 -3.965915
v 17.248259 8.248259 -3.965915
v 12.751741 19.248259 3.938760
v 12.751741 19.248259 -3.965915
v 19.248259 19.248259 -3.965915
v 19.248259 19.248259 3.938760
v 12.751741 25.248259 3.938760
v 12.751741 25.248259 -3.965915
v 19.248259 25.248259 -3.965915
v 19.248259 25.248259 3.938760
v 2.751741 19.248259 3.938760
v 2.751741 19.248259 -3.965915
v 2.751741 25.248259 3.938760
v 2.751741 25.248259 -3.965915
v -2.248259 19.248259 3.938760
v -2.248259 19.248259 -3.965915
v -2.248259 25.248259 3.938760
v -2.248259 25.248259 -3.965915
v 2.751741 15.248259 3.938760
v 2.751741 15.248259 -3.965915
v -2.248259 15.248259 3.938760
v -2.248259 15.248259 -3.965915
v 2.751741 13.248259 3.938760
v 2.751741 13.248259 -3.965915
v -2.248259 13.248259 3.938760
v -2.248259 13.248259 -3.965915
v 2.751741 9.248259 3.938760
v 2.751741 9.248259 -3.965915
v -1.248259 8.248259 3.938760
v -1.248259 8.248259 -3.965915
v -7.049977 10.080538 3.938760
v -7.049977 10.080538 -3.965915
v -5.446540 6.415979 3.938760
v -5.446540 6.415979 -3.965915
v -11.714535 7.477100 3.938760
v -11.714535 7.477100 -3.965915
v -10.111099 3.812542 3.938760
v -10.111098 3.812542 -3.965915
v -17.043653 7.270226 3.938760
v -17.043653 7.270226 -3.965915
v -16.440216 1.605667 3.938760
v -16.440216 1.605667 -3.965915
v -11.869698 11.474091 3.938760
v -11.869698 11.474091 -3.965915
v -17.198816 11.267216 3.938760
v -17.198816 11.267216 -3.965915
v -12.026098 14.236108 3.938760
v -12.026098 14.236108 -3.965915
v -17.352739 14.499177 3.938760
v -17.352739 14.499177 -3.965915
v -11.779461 19.230021 3.938760
v -11.779461 19.230021 -3.965915
v -17.106102 19.493090 3.938760
v -17.106102 19.493090 -3.965915
v -9.526118 13.212742 3.938760
v -9.526118 13.212742 -3.965915
v -8.284311 18.056078 3.938760
v -8.284312 18.056078 -3.965915
v -4.682781 12.970935 3.938760
v -4.682781 12.970935 -3.965915
v -3.440974 17.814272 3.938760
v -3.440975 17.814272 -3.965915
v -11.923143 22.675343 3.938760
v -11.923143 22.675343 -3.965915
v -10.573373 27.821175 3.938760
v -10.573373 27.821175 -3.965915
v -18.130215 23.111778 3.938760
v -18.130215 23.111778 -3.965915
v -17.973635 28.429386 3.938760
v -17.973635 28.429386 -3.965915
v 2.751741 28.248259 3.938760
v 2.751741 28.248259 -3.965915
v -2.248259 28.248259 3.938760
v -2.248259 28.248259 -3.965915
v 2.751741 33.248260 3.938760
v 2.751741 33.248260 -3.965915
v -2.248259 33.248260 3.938760
v -2.248259 33.248260 -3.965915
v 7.418405 30.338785 3.938760
v 7.418405 30.338785 -3.965915
v 6.085079 35.157734 3.938760
v 6.085079 35.157734 -3.965915
v 11.273561 31.405445 3.938760
v 11.273563 31.405445 -3.965915
v 9.940235 36.224396 3.938760
v 9.940237 36.224396 -3.965915
v 17.421858 30.915115 3.938760
v 17.421858 30.915115 -3.965915
v 17.357412 35.914707 3.938760
v 17.357412 35.914703 -3.965915
v -4.248259 28.248259 3.938760
v -4.248259 28.248259 -3.965915
v -4.248259 33.248260 3.938760
v -4.248259 33.248260 -3.965915
v -10.248259 29.248259 3.938760
v -10.248259 29.248259 -3.965915
v -10.248259 34.248260 3.938760
v -10.248259 34.248260 -3.965915
v -3.392649 35.897446 3.938760
v -3.392649 35.897446 -3.965915
v -9.459879 35.463013 3.938760
v -9.459879 35.463013 -3.965915
v -3.606910 38.889786 3.938760
v -3.606910 38.889786 -3.965915
v -9.674140 38.455353 3.938760
v -9.674140 38.455353 -3.965915
v -11.454771 35.320171 3.938760
v -11.454771 35.320171 -3.965915
v -11.669033 38.312511 3.938760
v -11.669033 38.312511 -3.965915
v -17.439449 34.891651 3.938760
v -17.439449 34.891651 -3.965915
v -17.653711 37.883991 3.938760
v -17.653711 37.883991 -3.965915
v -13.240511 31.327831 3.938760
v -13.240511 31.327831 -3.965915
v -19.225189 30.899311 3.938760
v -19.225189 30.899311 -3.965915
v -6.515488 18.951111 -3.965915
v -6.981029 24.545406 -3.965915
v -6.981029 24.545406 3.938760
v -6.515488 18.951111 3.938760
vt 0.625000 0.000000
vt 0.375000 0.000000
vt 0.375000 0.250000
vt 0.625000 0.250000
vt 0.375000 0.500000
vt 0.625000 0.500000
vt 0.375000 0.750000
vt 0.625000 0.750000
vt 0.375000 1.000000
vt 0.125000 0.500000
vt 0.125000 0.750000
vt 0.625000 0.750000
vt 0.625000 1.000000
vt 0.625000 1.000000
vt 0.625000 0.250000
vt 0.625000 1.000000
vt 0.625000 0.500000
vt 0.875000 0.500000
vt 0.625000 0.500000
vt 0.625000 0.750000
vt 0.625000 0.250000
vt 0.625000 0.250000
vt 0.625000 1.000000
vt 0.625000 1.000000
vt 0.625000 1.000000
vt 0.875000 0.750000
vt 0.875000 0.750000
vt 0.625000 0.000000
vt 0.625000 0.250000
vt 0.625000 0.250000
vt 0.625000 0.250000
vt 0.625000 0.250000
vt 0.625000 1.000000
vt 0.625000 0.250000
vt 0.625000 0.250000
vt 0.625000 1.000000
vt 0.625000 1.000000
vt 0.625000 0.000000
vt 0.625000 0.250000
vt 0.625000 0.250000
vt 0.625000 0.250000
vt 0.625000 0.000000
vt 0.625000 0.000000
vt 0.625000 1.000000
vt 0.625000 1.000000
vt 0.625000 0.000000
vt 0.625000 0.250000
vt 0.625000 0.250000
vt 0.625000 0.000000
vt 0.625000 0.000000
vt 0.625000 0.250000
vt 0.625000 0.250000
vt 0.625000 0.000000
vt 0.625000 0.000000
vt 0.625000 0.250000
vt 0.625000 1.000000
vt 0.625000 1.000000
vt 0.625000 1.000000
vt 0.625000 0.000000
vt 0.625000 1.000000
vt 0.625000 1.000000
vt 0.625000 0.250000
vt 0.625000 0.250000
vt 0.625000 0.000000
vt 0.625000 0.000000
vt 0.625000 0.000000
vt 0.625000 0.250000
vt 0.625000 0.250000
vt 0.625000 0.000000
vt 0.625000 0.000000
vt 0.625000 0.250000
vt 0.625000 0.000000
vt 0.625000 1.000000
vt 0.625000 0.250000
vt 0.625000 0.250000
vt 0.625000 0.250000
vt 0.625000 1.000000
vt 0.625000 1.000000
vt 0.625000 1.000000
vt 0.625000 1.000000
vt 0.625000 1.000000
vt 0.625000 1.000000
vt 0.625000 0.000000
vt 0.625000 0.000000
vt 0.625000 0.250000
vt 0.625000 0.250000
vt 0.625000 0.000000
vt 0.625000 0.000000
vt 0.625000 0.000000
vt 0.625000 0.250000
vt 0.625000 1.000000
vt 0.625000 1.000000
vt 0.625000 1.000000
vt 0.625000 1.000000
vt 0.625000 0.250000
vt 0.625000 0.250000
vt 0.625000 0.000000
vt 0.625000 0.250000
vt 0.625000 0.000000
vt 0.625000 0.000000
vt 0.625000 0.000000
vt 0.625000 0.250000
vt 0.625000 1.000000
vt 0.625000 1.000000
vt 0.625000 1.000000
vt 0.875000 0.500000
vt 0.875000 0.750000
vt 0.875000 0.750000
vt 0.625000 1.000000
vt 0.625000 1.000000
vt 0.625000 0.000000
vt 0.625000 0.250000
vt 0.625000 0.000000
vt 0.625000 0.250000
vt 0.625000 0.250000
vt 0.625000 0.000000
vt 0.875000 0.500000
vt 0.875000 0.750000
vt 0.625000 0.250000
vt 0.625000 0.250000
vt 0.875000 0.750000
vt 0.875000 0.500000
vt 0.875000 0.500000
vt 0.875000 0.500000
vt 0.875000 0.750000
vt 0.625000 1.000000
vt 0.625000 1.000000
vt 0.875000 0.500000
vt 0.875000 0.750000
vt 0.875000 0.750000
vt 0.625000 1.000000
vt 0.625000 1.000000
vt 0.625000 1.000000
vt 0.875000 0.500000
vt 0.875000 0.500000
vt 0.875000 0.750000
vt 0.875000 0.750000
vt 0.625000 1.000000
vt 0.625000 1.000000
vt 0.625000 1.000000
vt 0.625000 0.250000
vt 0.875000 0.500000
vt 0.625000 1.000000
vt 0.625000 1.000000
vt 0.625000 1.000000
vt 0.875000 0.500000
vt 0.875000 0.750000
vt 0.625000 0.250000
vt 0.625000 0.250000
vt 0.875000 0.750000
vt 0.875000 0.750000
vt 0.875000 0.500000
vt 0.625000 0.250000
vt 0.625000 0.250000
vt 0.875000 0.500000
vt 0.625000 1.000000
vt 0.625000 1.000000
vt 0.875000 0.750000
vt 0.875000 0.500000
vt 0.625000 0.250000
vt 0.625000 0.250000
vt 0.875000 0.500000
vt 0.875000 0.750000
vt 0.875000 0.750000
vt 0.875000 0.500000
vt 0.875000 0.500000
vt 0.875000 0.750000
vt 0.875000 0.500000
vt 0.625000 0.250000
vt 0.625000 0.250000
vt 0.875000 0.750000
vt 0.625000 1.000000
vt 0.625000 1.000000
vt 0.625000 1.000000
vt 0.625000 0.250000
vt 0.625000 0.250000
vt 0.875000 0.500000
vt 0.875000 0.750000
vt 0.625000 1.000000
vt 0.875000 0.500000
vt 0.875000 0.750000
vt 0.875000 0.750000
vt 0.875000 0.500000
vt 0.625000 0.250000
vt 0.625000 0.250000
vt 0.625000 0.250000
vt 0.625000 1.000000
vt 0.625000 1.000000
vt 0.625000 1.000000
vt 0.875000 0.500000
vt 0.875000 0.750000
vt 0.875000 0.750000
vt 0.875000 0.500000
vt 0.875000 0.750000
vt 0.875000 0.500000
vt 0.875000 0.500000
vt 0.875000 0.750000
vt 0.625000 0.250000
vt 0.625000 0.250000
vt 0.875000 0.500000
vt 0.875000 0.750000
vt 0.875000 0.750000
vt 0.875000 0.500000
vt 0.875000 0.500000
vt 0.625000 1.000000
vt 0.875000 0.750000
vt 0.625000 0.250000
vt 0.625000 0.250000
vt 0.625000 1.000000
vt 0.625000 1.000000
vt 0.625000 0.000000
vt 0.875000 0.500000
vt 0.875000 0.750000
vt 0.625000 1.000000
vt 0.625000 0.250000
vt 0.875000 0.500000
vt 0.625000 0.250000
vt 0.625000 1.000000
vt 0.625000 0.250000
vt 0.625000 1.000000
vt 0.625000 1.000000
vn 1.0000 0.0000 0.0000
vn 0.0000 0.0000 1.0000
vn -1.0000 0.0000 0.0000
vn 0.0000 0.0000 -1.0000
vn 0.0000 1.0000 0.0000
vn -0.9839 0.1789 0.0000
vn 0.9839 -0.1789 0.0000
vn 0.0000 -1.0000 0.0000
vn -0.2425 0.9701 0.0000
vn -0.4000 0.9165 0.0000
vn 0.5507 -0.8347 0.0000
vn -0.9992 -0.0388 0.0000
vn 0.4874 -0.8732 0.0000
vn -0.4874 0.8732 0.0000
vn 0.9944 0.1059 0.0000
vn -0.3292 0.9442 0.0000
vn 0.9992 0.0388 0.0000
vn -0.9984 -0.0565 0.0000
vn 0.9989 0.0476 0.0000
vn -0.0493 -0.9988 0.0000
vn 0.9988 -0.0493 0.0000
vn -0.3184 -0.9480 0.0000
vn 0.3788 0.9255 0.0000
vn -0.9687 0.2484 0.0000
vn 0.0499 0.9988 0.0000
vn -0.0499 -0.9988 0.0000
vn -0.6738 -0.7389 0.0000
vn 0.5672 0.8236 0.0000
vn 0.9996 -0.0294 0.0000
vn 0.0701 0.9975 0.0000
vn -0.0819 -0.9966 0.0000
vn 0.4971 -0.8677 0.0000
vn -0.2667 0.9638 0.0000
vn -0.4088 0.9126 0.0000
vn 0.2667 -0.9638 0.0000
vn -0.9999 -0.0129 0.0000
vn -0.0417 -0.9991 0.0000
vn 0.0795 0.9968 0.0000
vn 0.8388 -0.5444 0.0000
vn 0.1644 0.9864 0.0000
vn -0.9516 0.3073 0.0000
vn 0.0714 -0.9974 0.0000
vn -0.9974 -0.0714 0.0000
vn -0.0714 0.9974 0.0000
vn 0.9974 0.0714 0.0000
vn 0.9128 -0.4083 0.0000
vn -0.9128 0.4083 0.0000
vn -0.0695 0.9976 0.0000
vn 0.1469 -0.9892 0.0000
usemtl Material
s off
f 2/1/1 1/2/1 3/3/1
f 4/4/2 3/3/2 7/5/2
f 8/6/3 7/5/3 5/7/3
f 6/8/4 5/7/4 1/9/4
f 7/5/5 3/10/5 1/11/5
f 8/6/6 6/8/6 12/12/6
f 12/12/4 9/13/4 13/14/4
f 2/1/7 4/4/7 10/15/7
f 6/8/4 2/16/4 9/13/4
f 8/6/2 11/17/2 10/15/2
f 14/18/8 15/19/8 16/20/8
f 10/15/2 11/17/2 15/19/2
f 11/17/3 12/12/3 16/20/3
f 10/15/2 14/21/2 20/22/2
f 19/23/4 17/24/4 21/25/4
f 14/18/8 13/26/8 19/27/8
f 13/14/4 9/13/4 17/24/4
f 9/28/5 10/15/5 18/29/5
f 126/30/2 72/31/2 70/32/2
f 21/25/4 17/24/4 25/33/4
f 18/29/2 20/22/2 24/34/2
f 24/34/2 20/22/2 78/35/2
f 27/36/4 25/33/4 29/37/4
f 17/38/3 18/29/3 26/39/3
f 18/29/2 22/40/2 28/41/2
f 22/40/1 21/42/1 27/43/1
f 31/44/4 29/37/4 33/45/4
f 25/46/3 26/39/3 30/47/3
f 26/39/2 28/41/2 32/48/2
f 28/41/1 27/43/1 31/49/1
f 33/50/9 34/51/9 36/52/9
f 29/53/3 30/47/3 34/51/3
f 32/48/2 36/52/2 34/51/2
f 35/54/10 36/52/10 40/55/10
f 39/56/4 43/57/4 41/58/4
f 32/48/11 31/49/11 37/59/11
f 35/60/4 39/56/4 37/61/4
f 36/52/2 32/48/2 38/62/2
f 42/63/12 41/64/12 49/65/12
f 37/59/13 41/64/13 42/63/13
f 40/55/2 38/62/2 42/63/2
f 39/66/14 40/55/14 44/67/14
f 46/68/15 45/69/15 47/70/15
f 42/63/2 46/68/2 48/71/2
f 43/72/16 44/67/16 48/71/16
f 41/58/4 43/57/4 47/73/4
f 52/74/2 50/75/2 54/76/2
f 46/68/2 42/63/2 50/75/2
f 45/69/17 46/68/17 52/74/17
f 45/77/4 51/78/4 49/79/4
f 53/80/4 55/81/4 59/82/4
f 50/75/18 49/65/18 53/83/18
f 51/78/4 55/81/4 53/80/4
f 51/84/19 52/74/19 56/85/19
f 58/86/20 57/87/20 59/88/20
f 55/89/21 56/85/21 60/90/21
f 54/76/2 58/86/2 60/90/2
f 53/80/4 57/91/4 63/92/4
f 63/92/4 67/93/4 65/94/4
f 57/87/22 58/86/22 64/95/22
f 54/76/2 62/96/2 64/95/2
f 54/76/23 53/83/23 61/97/23
f 66/98/24 65/99/24 67/100/24
f 62/96/25 61/97/25 65/99/25
f 64/95/2 62/96/2 66/98/2
f 63/101/26 64/95/26 68/102/26
f 69/103/4 73/104/4 75/105/4
f 126/106/27 127/107/27 71/108/27
f 127/109/4 128/110/4 69/103/4
f 128/111/28 125/112/28 70/32/28
f 73/113/29 74/114/29 76/115/29
f 69/116/30 70/32/30 74/114/30
f 70/32/2 72/31/2 76/115/2
f 72/117/31 71/108/31 75/118/31
f 80/119/2 78/35/2 82/120/2
f 23/121/1 24/122/1 80/123/1
f 20/124/3 19/27/3 77/125/3
f 19/23/4 23/126/4 79/127/4
f 82/128/8 81/129/8 83/130/8
f 83/131/4 79/127/4 97/132/4
f 77/133/4 79/127/4 83/131/4
f 81/129/32 82/128/32 88/134/32
f 86/135/33 85/136/33 89/137/33
f 81/138/4 87/139/4 85/140/4
f 82/120/2 78/35/2 86/141/2
f 78/142/34 77/125/34 85/136/34
f 89/143/4 91/144/4 95/145/4
f 87/139/4 91/144/4 89/143/4
f 88/134/35 92/146/35 91/147/35
f 88/148/2 86/141/2 90/149/2
f 93/150/36 95/151/36 96/152/36
f 92/146/37 96/152/37 95/151/37
f 90/149/2 94/153/2 96/154/2
f 90/155/38 89/137/38 93/150/38
f 99/156/4 97/132/4 101/157/4
f 79/158/5 80/123/5 98/159/5
f 80/119/2 84/160/2 100/161/2
f 84/162/8 83/130/8 99/163/8
f 101/164/1 102/165/1 104/166/1
f 103/167/39 104/166/39 108/168/39
f 100/161/2 104/169/2 102/170/2
f 97/171/40 98/159/40 102/165/40
f 105/172/4 107/173/4 111/174/4
f 100/161/2 106/175/2 108/176/2
f 100/177/41 99/163/41 105/178/41
f 99/156/4 103/179/4 107/173/4
f 110/180/42 109/181/42 111/182/42
f 106/183/43 105/178/43 109/181/43
f 108/176/2 106/175/2 110/184/2
f 108/176/2 112/185/2 116/186/2
f 115/187/4 113/188/4 117/189/4
f 107/173/4 113/188/4 115/187/4
f 112/190/42 111/182/42 115/191/42
f 107/192/44 108/168/44 114/193/44
f 117/194/45 118/195/45 120/196/45
f 118/195/46 117/194/46 123/197/46
f 116/186/2 120/198/2 118/199/2
f 116/200/42 115/191/42 119/201/42
f 121/202/44 122/203/44 124/204/44
f 117/189/4 113/188/4 121/205/4
f 113/206/47 114/193/47 122/203/47
f 118/199/2 124/207/2 122/208/2
f 21/42/48 22/40/48 125/112/48
f 21/25/4 128/110/4 127/109/4
f 24/122/49 23/121/49 127/107/49
f 22/40/2 24/34/2 126/30/2
f 2/1/1 3/3/1 4/4/1
f 4/4/2 7/5/2 8/6/2
f 8/6/3 5/7/3 6/8/3
f 6/8/4 1/9/4 2/16/4
f 7/5/5 1/11/5 5/7/5
f 8/6/6 12/12/6 11/17/6
f 12/12/4 13/14/4 16/20/4
f 2/1/7 10/15/7 9/28/7
f 6/8/4 9/13/4 12/12/4
f 8/6/2 10/15/2 4/4/2
f 14/18/8 16/20/8 13/26/8
f 10/15/2 15/19/2 14/21/2
f 11/17/3 16/20/3 15/19/3
f 10/15/2 20/22/2 18/29/2
f 19/23/4 21/25/4 23/126/4
f 14/18/8 19/27/8 20/124/8
f 13/14/4 17/24/4 19/23/4
f 9/28/5 18/29/5 17/38/5
f 126/30/2 70/32/2 125/112/2
f 21/25/4 25/33/4 27/36/4
f 18/29/2 24/34/2 22/40/2
f 24/34/2 78/35/2 80/119/2
f 27/36/4 29/37/4 31/44/4
f 17/38/3 26/39/3 25/46/3
f 18/29/2 28/41/2 26/39/2
f 22/40/1 27/43/1 28/41/1
f 31/44/4 33/45/4 35/60/4
f 25/46/3 30/47/3 29/53/3
f 26/39/2 32/48/2 30/47/2
f 28/41/1 31/49/1 32/48/1
f 33/50/9 36/52/9 35/54/9
f 29/53/3 34/51/3 33/50/3
f 32/48/2 34/51/2 30/47/2
f 35/54/10 40/55/10 39/66/10
f 39/56/4 41/58/4 37/61/4
f 32/48/11 37/59/11 38/62/11
f 35/60/4 37/61/4 31/44/4
f 36/52/2 38/62/2 40/55/2
f 42/63/12 49/65/12 50/75/12
f 37/59/13 42/63/13 38/62/13
f 40/55/2 42/63/2 44/67/2
f 39/66/14 44/67/14 43/72/14
f 46/68/15 47/70/15 48/71/15
f 42/63/2 48/71/2 44/67/2
f 43/72/16 48/71/16 47/70/16
f 41/58/4 47/73/4 45/77/4
f 52/74/2 54/76/2 56/85/2
f 46/68/2 50/75/2 52/74/2
f 45/69/17 52/74/17 51/84/17
f 45/77/4 49/79/4 41/58/4
f 53/80/4 59/82/4 57/91/4
f 50/75/18 53/83/18 54/76/18
f 51/78/4 53/80/4 49/79/4
f 51/84/19 56/85/19 55/89/19
f 58/86/20 59/88/20 60/90/20
f 55/89/21 60/90/21 59/88/21
f 54/76/2 60/90/2 56/85/2
f 53/80/4 63/92/4 61/209/4
f 63/92/4 65/94/4 61/209/4
f 57/87/22 64/95/22 63/101/22
f 54/76/2 64/95/2 58/86/2
f 54/76/23 61/97/23 62/96/23
f 66/98/24 67/100/24 68/102/24
f 62/96/25 65/99/25 66/98/25
f 64/95/2 66/98/2 68/102/2
f 63/101/26 68/102/26 67/100/26
f 69/103/4 75/105/4 71/210/4
f 126/106/27 71/108/27 72/117/27
f 127/109/4 69/103/4 71/210/4
f 128/111/28 70/32/28 69/116/28
f 73/113/29 76/115/29 75/211/29
f 69/116/30 74/114/30 73/113/30
f 70/32/2 76/115/2 74/114/2
f 72/117/31 75/118/31 76/212/31
f 80/119/2 82/120/2 84/160/2
f 23/121/1 80/123/1 79/158/1
f 20/124/3 77/125/3 78/142/3
f 19/23/4 79/127/4 77/133/4
f 82/128/8 83/130/8 84/162/8
f 83/131/4 97/132/4 99/156/4
f 77/133/4 83/131/4 81/138/4
f 81/129/32 88/134/32 87/213/32
f 86/135/33 89/137/33 90/155/33
f 81/138/4 85/140/4 77/133/4
f 82/120/2 86/141/2 88/148/2
f 78/142/34 85/136/34 86/135/34
f 89/143/4 95/145/4 93/214/4
f 87/139/4 89/143/4 85/140/4
f 88/134/35 91/147/35 87/213/35
f 88/148/2 90/149/2 92/215/2
f 93/150/36 96/152/36 94/216/36
f 92/146/37 95/151/37 91/147/37
f 90/149/2 96/154/2 92/215/2
f 90/155/38 93/150/38 94/216/38
f 99/156/4 101/157/4 103/179/4
f 79/158/5 98/159/5 97/171/5
f 80/119/2 100/161/2 98/217/2
f 84/162/8 99/163/8 100/177/8
f 101/164/1 104/166/1 103/167/1
f 103/167/39 108/168/39 107/192/39
f 100/161/2 102/170/2 98/217/2
f 97/171/40 102/165/40 101/164/40
f 105/172/4 111/174/4 109/218/4
f 100/161/2 108/176/2 104/169/2
f 100/177/41 105/178/41 106/183/41
f 99/156/4 107/173/4 105/172/4
f 110/180/42 111/182/42 112/190/42
f 106/183/43 109/181/43 110/180/43
f 108/176/2 110/184/2 112/185/2
f 108/176/2 116/186/2 114/219/2
f 115/187/4 117/189/4 119/220/4
f 107/173/4 115/187/4 111/174/4
f 112/190/42 115/191/42 116/200/42
f 107/192/44 114/193/44 113/206/44
f 117/194/45 120/196/45 119/201/45
f 118/195/46 123/197/46 124/204/46
f 116/186/2 118/199/2 114/219/2
f 116/200/42 119/201/42 120/196/42
f 121/202/44 124/204/44 123/197/44
f 117/189/4 121/205/4 123/221/4
f 113/206/47 122/203/47 121/202/47
f 118/199/2 122/208/2 114/219/2
f 21/42/48 125/112/48 128/111/48
f 21/25/4 127/109/4 23/126/4
f 24/122/49 127/107/49 126/106/49
f 22/40/2 126/30/2 125/112/2
o DeliveryZone.BoxShape
v -1.750000 -0.500000 3.000000
v -1.750000 0.500000 3.000000
v -1.750000 -0.500000 -3.000000
v -1.750000 0.500000 -3.000000
v 1.750000 -0.500000 3.000000
v 1.750000 0.500000 3.000000
v 1.750000 -0.500000 -3.000000
v 1.750000 0.500000 -3.000000
vt 0.625000 0.000000
vt 0.375000 0.250000
vt 0.375000 0.000000
vt 0.625000 0.250000
vt 0.375000 0.500000
vt 0.625000 0.500000
vt 0.375000 0.750000
vt 0.625000 0.750000
vt 0.375000 1.000000
vt 0.125000 0.750000
vt 0.125000 0.500000
vt 0.875000 0.500000
vt 0.625000 1.000000
vt 0.875000 0.750000
vn -1.0000 0.0000 0.0000
vn 0.0000 0.0000 -1.0000
vn 1.0000 0.0000 0.0000
vn 0.0000 0.0000 1.0000
vn 0.0000 -1.0000 0.0000
vn 0.0000 1.0000 0.0000
usemtl None
s off
f 130/222/50 131/223/50 129/224/50
f 132/225/51 135/226/51 131/223/51
f 136/227/52 133/228/52 135/226/52
f 134/229/53 129/230/53 133/228/53
f 135/226/54 129/231/54 131/232/54
f 132/233/55 134/229/55 136/227/55
f 130/222/50 132/225/50 131/223/50
f 132/225/51 136/227/51 135/226/51
f 136/227/52 134/229/52 133/228/52
f 134/229/53 130/234/53 129/230/53
f 135/226/54 133/228/54 129/231/54
f 132/233/55 130/235/55 134/229/55
