# Blender v2.91.0 OBJ File: 'LunarLander.Collision.blend'
# www.blender.org
mtllib LunarLander.Collision.mtl
o LunarLander.CompoundSphere.000
v -0.000000 0.478793 -0.253947
v -0.000000 0.332177 -0.293233
v -0.000000 0.078230 -0.146616
v 0.056108 0.586124 -0.135456
v 0.097181 0.478793 -0.234617
v 0.112215 0.332177 -0.270912
v 0.097181 0.185560 -0.234617
v 0.056108 0.078230 -0.135456
v 0.103673 0.586124 -0.103673
v 0.179568 0.478793 -0.179568
v 0.207347 0.332177 -0.207347
v 0.179568 0.185560 -0.179568
v 0.103673 0.078230 -0.103673
v 0.135456 0.586124 -0.056108
v 0.234617 0.478793 -0.097181
v 0.270912 0.332177 -0.112215
v 0.234616 0.185560 -0.097181
v 0.135456 0.078230 -0.056108
v 0.146616 0.586124 -0.000000
v 0.253947 0.478793 0.000000
v 0.293233 0.332177 0.000000
v 0.253947 0.185560 0.000000
v 0.146616 0.078230 -0.000000
v 0.135456 0.586124 0.056108
v 0.234616 0.478793 0.097181
v 0.270912 0.332177 0.112215
v 0.234616 0.185560 0.097181
v 0.135456 0.078230 0.056108
v 0.103673 0.586124 0.103673
v 0.179568 0.478793 0.179568
v 0.207347 0.332177 0.207347
v 0.179568 0.185560 0.179568
v 0.103673 0.078230 0.103673
v 0.056108 0.586124 0.135456
v 0.097181 0.478793 0.234616
v 0.112215 0.332177 0.270912
v 0.097181 0.185560 0.234616
v 0.056108 0.078230 0.135456
v -0.000000 0.586124 0.146616
v -0.000000 0.478793 0.253947
v -0.000000 0.332177 0.293233
v -0.000000 0.185560 0.253947
v -0.000000 0.078230 0.146616
v -0.056108 0.586124 0.135456
v -0.097181 0.478793 0.234616
v -0.112215 0.332177 0.270912
v -0.097181 0.185560 0.234616
v -0.056108 0.078230 0.135456
v -0.103673 0.586124 0.103673
v -0.179568 0.478793 0.179568
v -0.207347 0.332177 0.207347
v -0.179568 0.185560 0.179568
v -0.103673 0.078230 0.103673
v -0.000000 0.038944 -0.000000
v -0.135456 0.586124 0.056108
v -0.234616 0.478793 0.097181
v -0.270912 0.332177 0.112215
v -0.234616 0.185560 0.097181
v -0.135456 0.078230 0.056108
v -0.146616 0.586124 -0.000000
v -0.253947 0.478793 -0.000000
v -0.293233 0.332177 -0.000000
v -0.253947 0.185560 -0.000000
v -0.146616 0.078230 -0.000000
v -0.135456 0.586124 -0.056108
v -0.234616 0.478793 -0.097181
v -0.270912 0.332177 -0.112215
v -0.234616 0.185560 -0.097181
v -0.135456 0.078230 -0.056108
v -0.103673 0.586124 -0.103673
v -0.179568 0.478793 -0.179568
v -0.207347 0.332177 -0.207347
v -0.179568 0.185560 -0.179568
v -0.103673 0.078230 -0.103674
v -0.056108 0.586124 -0.135456
v -0.097181 0.478793 -0.234616
v -0.112215 0.332177 -0.270912
v -0.097181 0.185560 -0.234617
v -0.056108 0.078230 -0.135456
v -0.000000 0.625410 0.000000
v 0.000000 0.586124 -0.146616
v 0.000000 0.185560 -0.253947
vt 0.718750 0.000000
vt 0.750000 0.166667
vt 0.687500 0.166667
vt 0.750000 0.333333
vt 0.687500 0.500000
vt 0.687500 0.333333
vt 0.750000 0.833333
vt 0.687500 0.666667
vt 0.750000 0.666667
vt 0.750000 0.500000
vt 0.718750 1.000000
vt 0.687500 0.833333
vt 0.625000 0.333333
vt 0.625000 0.166667
vt 0.625000 0.500000
vt 0.656250 1.000000
vt 0.625000 0.833333
vt 0.656250 0.000000
vt 0.625000 0.666667
vt 0.562500 0.166667
vt 0.562500 0.500000
vt 0.593750 1.000000
vt 0.562500 0.833333
vt 0.593750 0.000000
vt 0.562500 0.333333
vt 0.562500 0.666667
vt 0.500000 0.333333
vt 0.500000 0.166667
vt 0.500000 0.500000
vt 0.531250 1.000000
vt 0.500000 0.833333
vt 0.531250 0.000000
vt 0.500000 0.666667
vt 0.437500 0.166667
vt 0.437500 0.500000
vt 0.468750 1.000000
vt 0.437500 0.833333
vt 0.468750 0.000000
vt 0.437500 0.333333
vt 0.437500 0.666667
vt 0.375000 0.500000
vt 0.406250 1.000000
vt 0.375000 0.833333
vt 0.406250 0.000000
vt 0.375000 0.166667
vt 0.375000 0.333333
vt 0.375000 0.666667
vt 0.343750 1.000000
vt 0.312500 0.833333
vt 0.343750 0.000000
vt 0.312500 0.166667
vt 0.312500 0.500000
vt 0.312500 0.333333
vt 0.312500 0.666667
vt 0.281250 0.000000
vt 0.250000 0.166667
vt 0.250000 0.500000
vt 0.250000 0.333333
vt 0.250000 0.666667
vt 0.281250 1.000000
vt 0.250000 0.833333
vt 0.218750 0.000000
vt 0.187500 0.166667
vt 0.187500 0.500000
vt 0.187500 0.333333
vt 0.187500 0.833333
vt 0.187500 0.666667
vt 0.218750 1.000000
vt 0.156250 0.000000
vt 0.125000 0.166667
vt 0.125000 0.333333
vt 0.125000 0.833333
vt 0.125000 0.666667
vt 0.125000 0.500000
vt 0.156250 1.000000
vt 0.062500 0.333333
vt 0.062500 0.666667
vt 0.062500 0.166667
vt 0.062500 0.500000
vt 0.093750 1.000000
vt 0.062500 0.833333
vt 0.093750 0.000000
vt 0.000000 0.666667
vt 0.000000 0.166667
vt 0.000000 0.500000
vt 0.031250 1.000000
vt 0.000000 0.833333
vt 0.031250 0.000000
vt 0.000000 0.333333
vt 1.000000 0.333333
vt 0.937500 0.166667
vt 1.000000 0.166667
vt 1.000000 0.666667
vt 0.937500 0.500000
vt 1.000000 0.500000
vt 1.000000 0.833333
vt 0.968750 1.000000
vt 0.937500 0.833333
vt 0.968750 0.000000
vt 0.937500 0.333333
vt 0.937500 0.666667
vt 0.875000 0.166667
vt 0.875000 0.666667
vt 0.875000 0.500000
vt 0.906250 1.000000
vt 0.875000 0.833333
vt 0.906250 0.000000
vt 0.875000 0.333333
vt 0.812500 0.333333
vt 0.812500 0.166667
vt 0.812500 0.666667
vt 0.812500 0.500000
vt 0.843750 1.000000
vt 0.812500 0.833333
vt 0.843750 0.000000
vt 0.781250 1.000000
vt 0.781250 0.000000
vn 0.0514 -0.9646 -0.2585
vn 0.1887 -0.2542 -0.9486
vn 0.1393 0.7002 -0.7002
vn 0.1393 -0.7002 -0.7002
vn 0.1887 0.2542 -0.9486
vn 0.0514 0.9646 -0.2585
vn 0.3966 -0.7002 -0.5936
vn 0.5373 0.2542 -0.8042
vn 0.1464 0.9646 -0.2191
vn 0.1464 -0.9646 -0.2191
vn 0.5373 -0.2542 -0.8042
vn 0.3966 0.7002 -0.5936
vn 0.5936 -0.7002 -0.3966
vn 0.8042 0.2542 -0.5373
vn 0.2191 0.9646 -0.1464
vn 0.2191 -0.9646 -0.1464
vn 0.8042 -0.2542 -0.5373
vn 0.5936 0.7002 -0.3966
vn 0.7002 -0.7002 -0.1393
vn 0.9486 0.2542 -0.1887
vn 0.2585 0.9646 -0.0514
vn 0.2585 -0.9646 -0.0514
vn 0.9486 -0.2542 -0.1887
vn 0.7002 0.7002 -0.1393
vn 0.7002 -0.7002 0.1393
vn 0.9486 0.2542 0.1887
vn 0.2585 0.9646 0.0514
vn 0.2585 -0.9646 0.0514
vn 0.9486 -0.2542 0.1887
vn 0.7002 0.7002 0.1393
vn 0.8042 0.2542 0.5373
vn 0.2191 0.9646 0.1464
vn 0.2191 -0.9646 0.1464
vn 0.8042 -0.2542 0.5373
vn 0.5936 0.7002 0.3966
vn 0.5936 -0.7002 0.3966
vn 0.1464 0.9646 0.2191
vn 0.1464 -0.9646 0.2191
vn 0.5373 -0.2542 0.8042
vn 0.3966 0.7002 0.5936
vn 0.3966 -0.7002 0.5936
vn 0.5373 0.2542 0.8042
vn 0.0514 -0.9646 0.2585
vn 0.1887 -0.2542 0.9486
vn 0.1393 0.7002 0.7002
vn 0.1393 -0.7002 0.7002
vn 0.1887 0.2542 0.9486
vn 0.0514 0.9646 0.2585
vn -0.0514 -0.9646 0.2585
vn -0.1887 -0.2542 0.9486
vn -0.1393 0.7002 0.7002
vn -0.1393 -0.7002 0.7002
vn -0.1887 0.2542 0.9486
vn -0.0514 0.9646 0.2585
vn -0.1464 -0.9646 0.2191
vn -0.5373 -0.2542 0.8042
vn -0.3966 0.7002 0.5936
vn -0.3966 -0.7002 0.5936
vn -0.5373 0.2542 0.8042
vn -0.1464 0.9646 0.2191
vn -0.8042 -0.2542 0.5373
vn -0.5936 0.7002 0.3966
vn -0.5936 -0.7002 0.3966
vn -0.8042 0.2542 0.5373
vn -0.2191 0.9646 0.1464
vn -0.2191 -0.9646 0.1464
vn -0.7002 0.7002 0.1393
vn -0.7002 -0.7002 0.1393
vn -0.9486 0.2542 0.1887
vn -0.2585 0.9646 0.0514
vn -0.2585 -0.9646 0.0514
vn -0.9486 -0.2542 0.1887
vn -0.7002 -0.7002 -0.1393
vn -0.9486 0.2542 -0.1887
vn -0.2585 0.9646 -0.0514
vn -0.2585 -0.9646 -0.0514
vn -0.9486 -0.2542 -0.1887
vn -0.7002 0.7002 -0.1393
vn -0.5936 -0.7002 -0.3966
vn -0.8042 0.2542 -0.5373
vn -0.2191 0.9646 -0.1464
vn -0.2191 -0.9646 -0.1464
vn -0.8042 -0.2542 -0.5373
vn -0.5936 0.7002 -0.3966
vn -0.3966 -0.7002 -0.5936
vn -0.5373 0.2542 -0.8042
vn -0.1464 0.9646 -0.2191
vn -0.1464 -0.9646 -0.2191
vn -0.5373 -0.2542 -0.8042
vn -0.3966 0.7002 -0.5936
vn -0.1393 -0.7002 -0.7002
vn -0.1887 0.2542 -0.9486
vn -0.0514 0.9646 -0.2585
vn -0.0514 -0.9646 -0.2585
vn -0.1887 -0.2542 -0.9486
vn -0.1393 0.7002 -0.7002
usemtl None
s off
f 54/1/1 3/2/1 8/3/1
f 82/4/2 6/5/2 7/6/2
f 81/7/3 5/8/3 1/9/3
f 82/4/4 8/3/4 3/2/4
f 1/9/5 6/5/5 2/10/5
f 81/7/6 80/11/6 4/12/6
f 8/3/7 12/13/7 13/14/7
f 5/8/8 11/15/8 6/5/8
f 4/12/9 80/16/9 9/17/9
f 54/18/10 8/3/10 13/14/10
f 7/6/11 11/15/11 12/13/11
f 4/12/12 10/19/12 5/8/12
f 12/13/13 18/20/13 13/14/13
f 10/19/14 16/21/14 11/15/14
f 9/17/15 80/22/15 14/23/15
f 54/24/16 13/14/16 18/20/16
f 12/13/17 16/21/17 17/25/17
f 9/17/18 15/26/18 10/19/18
f 18/20/19 22/27/19 23/28/19
f 15/26/20 21/29/20 16/21/20
f 14/23/21 80/30/21 19/31/21
f 54/32/22 18/20/22 23/28/22
f 16/21/23 22/27/23 17/25/23
f 14/23/24 20/33/24 15/26/24
f 22/27/25 28/34/25 23/28/25
f 20/33/26 26/35/26 21/29/26
f 19/31/27 80/36/27 24/37/27
f 54/38/28 23/28/28 28/34/28
f 21/29/29 27/39/29 22/27/29
f 19/31/30 25/40/30 20/33/30
f 25/40/31 31/41/31 26/35/31
f 24/37/32 80/42/32 29/43/32
f 54/44/33 28/34/33 33/45/33
f 27/39/34 31/41/34 32/46/34
f 24/37/35 30/47/35 25/40/35
f 27/39/36 33/45/36 28/34/36
f 29/43/37 80/48/37 34/49/37
f 54/50/38 33/45/38 38/51/38
f 32/46/39 36/52/39 37/53/39
f 29/43/40 35/54/40 30/47/40
f 32/46/41 38/51/41 33/45/41
f 30/47/42 36/52/42 31/41/42
f 54/55/43 38/51/43 43/56/43
f 37/53/44 41/57/44 42/58/44
f 34/49/45 40/59/45 35/54/45
f 38/51/46 42/58/46 43/56/46
f 35/54/47 41/57/47 36/52/47
f 34/49/48 80/60/48 39/61/48
f 54/62/49 43/56/49 48/63/49
f 42/58/50 46/64/50 47/65/50
f 40/59/51 44/66/51 45/67/51
f 42/58/52 48/63/52 43/56/52
f 40/59/53 46/64/53 41/57/53
f 39/61/54 80/68/54 44/66/54
f 54/69/55 48/63/55 53/70/55
f 46/64/56 52/71/56 47/65/56
f 45/67/57 49/72/57 50/73/57
f 47/65/58 53/70/58 48/63/58
f 45/67/59 51/74/59 46/64/59
f 44/66/60 80/75/60 49/72/60
f 51/74/61 58/76/61 52/71/61
f 49/72/62 56/77/62 50/73/62
f 52/71/63 59/78/63 53/70/63
f 50/73/64 57/79/64 51/74/64
f 49/72/65 80/80/65 55/81/65
f 54/82/66 53/70/66 59/78/66
f 55/81/67 61/83/67 56/77/67
f 58/76/68 64/84/68 59/78/68
f 57/79/69 61/83/69 62/85/69
f 55/81/70 80/86/70 60/87/70
f 54/88/71 59/78/71 64/84/71
f 58/76/72 62/85/72 63/89/72
f 63/90/73 69/91/73 64/92/73
f 61/93/74 67/94/74 62/95/74
f 60/96/75 80/97/75 65/98/75
f 54/99/76 64/92/76 69/91/76
f 62/95/77 68/100/77 63/90/77
f 60/96/78 66/101/78 61/93/78
f 68/100/79 74/102/79 69/91/79
f 67/94/80 71/103/80 72/104/80
f 65/98/81 80/105/81 70/106/81
f 54/107/82 69/91/82 74/102/82
f 67/94/83 73/108/83 68/100/83
f 66/101/84 70/106/84 71/103/84
f 74/102/85 78/109/85 79/110/85
f 72/104/86 76/111/86 77/112/86
f 70/106/87 80/113/87 75/114/87
f 54/115/88 74/102/88 79/110/88
f 73/108/89 77/112/89 78/109/89
f 70/106/90 76/111/90 71/103/90
f 78/109/91 3/2/91 79/110/91
f 77/112/92 1/9/92 2/10/92
f 75/114/93 80/116/93 81/7/93
f 54/117/94 79/110/94 3/2/94
f 78/109/95 2/10/95 82/4/95
f 76/111/96 81/7/96 1/9/96
f 82/4/2 2/10/2 6/5/2
f 81/7/3 4/12/3 5/8/3
f 82/4/4 7/6/4 8/3/4
f 1/9/5 5/8/5 6/5/5
f 8/3/7 7/6/7 12/13/7
f 5/8/8 10/19/8 11/15/8
f 7/6/11 6/5/11 11/15/11
f 4/12/12 9/17/12 10/19/12
f 12/13/13 17/25/13 18/20/13
f 10/19/14 15/26/14 16/21/14
f 12/13/17 11/15/17 16/21/17
f 9/17/18 14/23/18 15/26/18
f 18/20/19 17/25/19 22/27/19
f 15/26/20 20/33/20 21/29/20
f 16/21/23 21/29/23 22/27/23
f 14/23/24 19/31/24 20/33/24
f 22/27/25 27/39/25 28/34/25
f 20/33/26 25/40/26 26/35/26
f 21/29/29 26/35/29 27/39/29
f 19/31/30 24/37/30 25/40/30
f 25/40/31 30/47/31 31/41/31
f 27/39/34 26/35/34 31/41/34
f 24/37/35 29/43/35 30/47/35
f 27/39/36 32/46/36 33/45/36
f 32/46/39 31/41/39 36/52/39
f 29/43/40 34/49/40 35/54/40
f 32/46/41 37/53/41 38/51/41
f 30/47/42 35/54/42 36/52/42
f 37/53/44 36/52/44 41/57/44
f 34/49/45 39/61/45 40/59/45
f 38/51/46 37/53/46 42/58/46
f 35/54/47 40/59/47 41/57/47
f 42/58/50 41/57/50 46/64/50
f 40/59/51 39/61/51 44/66/51
f 42/58/52 47/65/52 48/63/52
f 40/59/53 45/67/53 46/64/53
f 46/64/56 51/74/56 52/71/56
f 45/67/57 44/66/57 49/72/57
f 47/65/58 52/71/58 53/70/58
f 45/67/59 50/73/59 51/74/59
f 51/74/61 57/79/61 58/76/61
f 49/72/62 55/81/62 56/77/62
f 52/71/63 58/76/63 59/78/63
f 50/73/64 56/77/64 57/79/64
f 55/81/67 60/87/67 61/83/67
f 58/76/68 63/89/68 64/84/68
f 57/79/69 56/77/69 61/83/69
f 58/76/72 57/79/72 62/85/72
f 63/90/73 68/100/73 69/91/73
f 61/93/74 66/101/74 67/94/74
f 62/95/77 67/94/77 68/100/77
f 60/96/78 65/98/78 66/101/78
f 68/100/79 73/108/79 74/102/79
f 67/94/80 66/101/80 71/103/80
f 67/94/83 72/104/83 73/108/83
f 66/101/84 65/98/84 70/106/84
f 74/102/85 73/108/85 78/109/85
f 72/104/86 71/103/86 76/111/86
f 73/108/89 72/104/89 77/112/89
f 70/106/90 75/114/90 76/111/90
f 78/109/91 82/4/91 3/2/91
f 77/112/92 76/111/92 1/9/92
f 78/109/95 77/112/95 2/10/95
f 76/111/96 75/114/96 81/7/96
o LunarLander.CompoundBox.000
v -0.344128 -0.132281 0.345823
v -0.344128 0.128891 0.345823
v -0.344128 -0.132281 -0.344128
v -0.344128 0.128891 -0.344128
v 0.345823 -0.132281 0.345823
v 0.345823 0.128891 0.345823
v 0.345823 -0.132281 -0.344128
v 0.345823 0.128891 -0.344128
vt 0.625000 0.000000
vt 0.375000 0.250000
vt 0.375000 0.000000
vt 0.625000 0.250000
vt 0.375000 0.500000
vt 0.625000 0.500000
vt 0.375000 0.750000
vt 0.625000 0.750000
vt 0.375000 1.000000
vt 0.125000 0.750000
vt 0.125000 0.500000
vt 0.875000 0.500000
vt 0.625000 1.000000
vt 0.875000 0.750000
vn -1.0000 0.0000 0.0000
vn 0.0000 0.0000 -1.0000
vn 1.0000 0.0000 0.0000
vn 0.0000 0.0000 1.0000
vn 0.0000 -1.0000 0.0000
vn 0.0000 1.0000 0.0000
usemtl None
s off
f 84/118/97 85/119/97 83/120/97
f 86/121/98 89/122/98 85/119/98
f 90/123/99 87/124/99 89/122/99
f 88/125/100 83/126/100 87/124/100
f 89/122/101 83/127/101 85/128/101
f 86/129/102 88/125/102 90/123/102
f 84/118/97 86/121/97 85/119/97
f 86/121/98 90/123/98 89/122/98
f 90/123/99 88/125/99 87/124/99
f 88/125/100 84/130/100 83/126/100
f 89/122/101 87/124/101 83/127/101
f 86/129/102 84/131/102 88/125/102
o LunarLander.CompoundBox.001
v 0.344494 -0.131779 0.059189
v 0.344494 0.131779 0.059189
v 0.344494 -0.131779 -0.060884
v 0.344494 0.131779 -0.060884
v 0.514839 -0.131779 0.059189
v 0.514839 0.131779 0.059189
v 0.514839 -0.131779 -0.060884
v 0.514839 0.131779 -0.060884
vt 0.625000 0.000000
vt 0.375000 0.250000
vt 0.375000 0.000000
vt 0.625000 0.250000
vt 0.375000 0.500000
vt 0.625000 0.500000
vt 0.375000 0.750000
vt 0.625000 0.750000
vt 0.375000 1.000000
vt 0.125000 0.750000
vt 0.125000 0.500000
vt 0.875000 0.500000
vt 0.625000 1.000000
vt 0.875000 0.750000
vn -1.0000 0.0000 0.0000
vn 0.0000 0.0000 -1.0000
vn 1.0000 0.0000 0.0000
vn 0.0000 0.0000 1.0000
vn 0.0000 -1.0000 0.0000
vn 0.0000 1.0000 0.0000
usemtl None
s off
f 92/132/103 93/133/103 91/134/103
f 94/135/104 97/136/104 93/133/104
f 98/137/105 95/138/105 97/136/105
f 96/139/106 91/140/106 95/138/106
f 97/136/107 91/141/107 93/142/107
f 94/143/108 96/139/108 98/137/108
f 92/132/103 94/135/103 93/133/103
f 94/135/104 98/137/104 97/136/104
f 98/137/105 96/139/105 95/138/105
f 96/139/106 92/144/106 91/140/106
f 97/136/107 95/138/107 91/141/107
f 94/143/108 92/145/108 96/139/108
o LunarLander.CompoundBox.002
v -0.344494 -0.131779 -0.061136
v -0.344494 0.131779 -0.061136
v -0.344494 -0.131779 0.062831
v -0.344494 0.131779 0.062831
v -0.514839 -0.131779 -0.061136
v -0.514839 0.131779 -0.061136
v -0.514839 -0.131779 0.062831
v -0.514839 0.131779 0.062831
vt 0.625000 0.000000
vt 0.375000 0.250000
vt 0.375000 0.000000
vt 0.625000 0.250000
vt 0.375000 0.500000
vt 0.625000 0.500000
vt 0.375000 0.750000
vt 0.625000 0.750000
vt 0.375000 1.000000
vt 0.125000 0.500000
vt 0.125000 0.750000
vt 0.875000 0.500000
vt 0.625000 1.000000
vt 0.875000 0.750000
vn 1.0000 0.0000 0.0000
vn 0.0000 0.0000 1.0000
vn -1.0000 0.0000 0.0000
vn -0.0000 0.0000 -1.0000
vn 0.0000 -1.0000 0.0000
vn 0.0000 1.0000 0.0000
usemtl None
s off
f 100/146/109 101/147/109 99/148/109
f 102/149/110 105/150/110 101/147/110
f 106/151/111 103/152/111 105/150/111
f 104/153/112 99/154/112 103/152/112
f 101/155/113 103/152/113 99/156/113
f 102/157/114 104/153/114 106/151/114
f 100/146/109 102/149/109 101/147/109
f 102/149/110 106/151/110 105/150/110
f 106/151/111 104/153/111 103/152/111
f 104/153/112 100/158/112 99/154/112
f 101/155/113 105/150/113 103/152/113
f 102/157/114 100/159/114 104/153/114
o LunarLander.CompoundBox.003
v -0.057345 -0.131779 0.344494
v -0.057345 0.131779 0.344494
v 0.059040 -0.131779 0.344494
v 0.059040 0.131779 0.344494
v -0.057345 -0.131779 0.514839
v -0.057345 0.131779 0.514839
v 0.059040 -0.131779 0.514839
v 0.059040 0.131779 0.514839
vt 0.625000 0.000000
vt 0.375000 0.250000
vt 0.375000 0.000000
vt 0.625000 0.250000
vt 0.375000 0.500000
vt 0.625000 0.500000
vt 0.375000 0.750000
vt 0.625000 0.750000
vt 0.375000 1.000000
vt 0.125000 0.500000
vt 0.125000 0.750000
vt 0.875000 0.500000
vt 0.625000 1.000000
vt 0.875000 0.750000
vn 0.0000 0.0000 -1.0000
vn 1.0000 0.0000 0.0000
vn 0.0000 0.0000 1.0000
vn -1.0000 0.0000 -0.0000
vn 0.0000 -1.0000 0.0000
vn 0.0000 1.0000 -0.0000
usemtl None
s off
f 108/160/115 109/161/115 107/162/115
f 110/163/116 113/164/116 109/161/116
f 114/165/117 111/166/117 113/164/117
f 112/167/118 107/168/118 111/166/118
f 109/169/119 111/166/119 107/170/119
f 110/171/120 112/167/120 114/165/120
f 108/160/115 110/163/115 109/161/115
f 110/163/116 114/165/116 113/164/116
f 114/165/117 112/167/117 111/166/117
f 112/167/118 108/172/118 107/168/118
f 109/169/119 113/164/119 111/166/119
f 110/171/120 108/173/120 112/167/120
o LunarLander.CompoundBox.004
v 0.057793 -0.131779 -0.344494
v 0.057793 0.131779 -0.344494
v -0.059487 -0.131779 -0.344494
v -0.059487 0.131779 -0.344494
v 0.057793 -0.131779 -0.514839
v 0.057793 0.131779 -0.514839
v -0.059487 -0.131779 -0.514839
v -0.059487 0.131779 -0.514839
vt 0.625000 0.000000
vt 0.375000 0.250000
vt 0.375000 0.000000
vt 0.625000 0.250000
vt 0.375000 0.500000
vt 0.625000 0.500000
vt 0.375000 0.750000
vt 0.625000 0.750000
vt 0.375000 1.000000
vt 0.125000 0.750000
vt 0.125000 0.500000
vt 0.875000 0.750000
vt 0.625000 1.000000
vt 0.875000 0.500000
vn 0.0000 0.0000 1.0000
vn -1.0000 0.0000 0.0000
vn 0.0000 0.0000 -1.0000
vn 1.0000 0.0000 -0.0000
vn 0.0000 -1.0000 0.0000
vn 0.0000 1.0000 0.0000
usemtl None
s off
f 116/174/121 117/175/121 115/176/121
f 118/177/122 121/178/122 117/175/122
f 122/179/123 119/180/123 121/178/123
f 120/181/124 115/182/124 119/180/124
f 121/178/125 115/183/125 117/184/125
f 122/179/126 116/185/126 120/181/126
f 116/174/121 118/177/121 117/175/121
f 118/177/122 122/179/122 121/178/122
f 122/179/123 120/181/123 119/180/123
f 120/181/124 116/186/124 115/182/124
f 121/178/125 119/180/125 115/183/125
f 122/179/126 118/187/126 116/185/126
o LunarLander.CompoundBox.005
v 0.508848 -0.287699 0.055514
v 0.508848 -0.076679 0.055514
v 0.508848 -0.287699 -0.055514
v 0.508848 -0.076679 -0.055514
v 0.680888 -0.287699 0.055514
v 0.680888 -0.076679 0.055514
v 0.680888 -0.287699 -0.055514
v 0.680888 -0.076679 -0.055514
vt 0.625000 0.000000
vt 0.375000 0.250000
vt 0.375000 0.000000
vt 0.625000 0.250000
vt 0.375000 0.500000
vt 0.625000 0.500000
vt 0.375000 0.750000
vt 0.625000 0.750000
vt 0.375000 1.000000
vt 0.125000 0.750000
vt 0.125000 0.500000
vt 0.875000 0.500000
vt 0.625000 1.000000
vt 0.875000 0.750000
vn -1.0000 0.0000 0.0000
vn 0.0000 0.0000 -1.0000
vn 1.0000 0.0000 0.0000
vn 0.0000 0.0000 1.0000
vn 0.0000 -1.0000 0.0000
vn 0.0000 1.0000 0.0000
usemtl None
s off
f 124/188/127 125/189/127 123/190/127
f 126/191/128 129/192/128 125/189/128
f 130/193/129 127/194/129 129/192/129
f 128/195/130 123/196/130 127/194/130
f 129/192/131 123/197/131 125/198/131
f 126/199/132 128/195/132 130/193/132
f 124/188/127 126/191/127 125/189/127
f 126/191/128 130/193/128 129/192/128
f 130/193/129 128/195/129 127/194/129
f 128/195/130 124/200/130 123/196/130
f 129/192/131 127/194/131 123/197/131
f 126/199/132 124/201/132 128/195/132
o LunarLander.CompoundBox.006
v -0.508848 -0.287699 -0.055514
v -0.508848 -0.076679 -0.055514
v -0.508848 -0.287699 0.055514
v -0.508848 -0.076679 0.055514
v -0.680888 -0.287699 -0.055514
v -0.680888 -0.076679 -0.055514
v -0.680888 -0.287699 0.055514
v -0.680888 -0.076679 0.055514
vt 0.625000 0.000000
vt 0.375000 0.250000
vt 0.375000 0.000000
vt 0.625000 0.250000
vt 0.375000 0.500000
vt 0.625000 0.500000
vt 0.375000 0.750000
vt 0.625000 0.750000
vt 0.375000 1.000000
vt 0.125000 0.750000
vt 0.125000 0.500000
vt 0.875000 0.500000
vt 0.625000 1.000000
vt 0.875000 0.750000
vn 1.0000 0.0000 0.0000
vn 0.0000 0.0000 1.0000
vn -1.0000 0.0000 0.0000
vn -0.0000 0.0000 -1.0000
vn 0.0000 -1.0000 0.0000
vn 0.0000 1.0000 -0.0000
usemtl None
s off
f 132/202/133 133/203/133 131/204/133
f 134/205/134 137/206/134 133/203/134
f 138/207/135 135/208/135 137/206/135
f 136/209/136 131/210/136 135/208/136
f 137/206/137 131/211/137 133/212/137
f 134/213/138 136/209/138 138/207/138
f 132/202/133 134/205/133 133/203/133
f 134/205/134 138/207/134 137/206/134
f 138/207/135 136/209/135 135/208/135
f 136/209/136 132/214/136 131/210/136
f 137/206/137 135/208/137 131/211/137
f 134/213/138 132/215/138 136/209/138
o LunarLander.CompoundBox.007
v -0.055514 -0.287699 0.508848
v -0.055514 -0.076679 0.508848
v 0.055514 -0.287699 0.508848
v 0.055514 -0.076679 0.508848
v -0.055514 -0.287699 0.680888
v -0.055514 -0.076679 0.680888
v 0.055514 -0.287699 0.680888
v 0.055514 -0.076679 0.680888
vt 0.625000 0.000000
vt 0.375000 0.250000
vt 0.375000 0.000000
vt 0.625000 0.250000
vt 0.375000 0.500000
vt 0.625000 0.500000
vt 0.375000 0.750000
vt 0.625000 0.750000
vt 0.375000 1.000000
vt 0.125000 0.500000
vt 0.125000 0.750000
vt 0.875000 0.500000
vt 0.625000 1.000000
vt 0.875000 0.750000
vn 0.0000 0.0000 -1.0000
vn 1.0000 0.0000 -0.0000
vn 0.0000 0.0000 1.0000
vn -1.0000 0.0000 0.0000
vn 0.0000 -1.0000 0.0000
vn 0.0000 1.0000 0.0000
usemtl None
s off
f 140/216/139 141/217/139 139/218/139
f 142/219/140 145/220/140 141/217/140
f 146/221/141 143/222/141 145/220/141
f 144/223/142 139/224/142 143/222/142
f 141/225/143 143/222/143 139/226/143
f 142/227/144 144/223/144 146/221/144
f 140/216/139 142/219/139 141/217/139
f 142/219/140 146/221/140 145/220/140
f 146/221/141 144/223/141 143/222/141
f 144/223/142 140/228/142 139/224/142
f 141/225/143 145/220/143 143/222/143
f 142/227/144 140/229/144 144/223/144
o LunarLander.CompoundBox.008
v 0.055514 -0.287699 -0.508848
v 0.055514 -0.076679 -0.508848
v -0.055514 -0.287699 -0.508848
v -0.055514 -0.076679 -0.508848
v 0.055514 -0.287699 -0.680888
v 0.055514 -0.076679 -0.680888
v -0.055514 -0.287699 -0.680888
v -0.055514 -0.076679 -0.680888
vt 0.625000 0.000000
vt 0.375000 0.250000
vt 0.375000 0.000000
vt 0.625000 0.250000
vt 0.375000 0.500000
vt 0.625000 0.500000
vt 0.375000 0.750000
vt 0.625000 0.750000
vt 0.375000 1.000000
vt 0.125000 0.750000
vt 0.125000 0.500000
vt 0.875000 0.500000
vt 0.625000 1.000000
vt 0.875000 0.750000
vn 0.0000 0.0000 1.0000
vn -1.0000 0.0000 0.0000
vn 0.0000 0.0000 -1.0000
vn 1.0000 0.0000 -0.0000
vn 0.0000 -1.0000 -0.0000
vn 0.0000 1.0000 0.0000
usemtl None
s off
f 148/230/145 149/231/145 147/232/145
f 150/233/146 153/234/146 149/231/146
f 154/235/147 151/236/147 153/234/147
f 152/237/148 147/238/148 151/236/148
f 153/234/149 147/239/149 149/240/149
f 150/241/150 152/237/150 154/235/150
f 148/230/145 150/233/145 149/231/145
f 150/233/146 154/235/146 153/234/146
f 154/235/147 152/237/147 151/236/147
f 152/237/148 148/242/148 147/238/148
f 153/234/149 151/236/149 147/239/149
f 150/241/150 148/243/150 152/237/150
